<svg width="291" height="333" viewBox="0 0 291 333" fill="none" xmlns="http://www.w3.org/2000/svg">
<mask id="mask0_133_5" style="mask-type:luminance" maskUnits="userSpaceOnUse" x="0" y="0" width="291" height="333">
<path d="M291 0.347656H0.451538V332.182H291V0.347656Z" fill="white"/>
</mask>
<g mask="url(#mask0_133_5)">
<path d="M282.674 0.347656H0.451538V332.182H282.674V0.347656Z" fill="#FDBB11"/>
<path d="M35.4147 -2.78271V-1.23288C24.5482 -1.23288 26.5434 1.65197 32.5292 20.9406L51.1619 81.6988L71.1222 16.5059C66.2415 0.539465 65.1364 -1.23288 56.0426 -1.23288V-2.78271H94.6356V-1.23288C83.7691 -1.23288 85.7643 1.65197 91.7501 20.9406L110.383 81.9213C136.114 -1.6702 135.224 -1.23288 115.486 -1.23288V-2.78271H154.079V-1.23288C136.114 -1.23288 137.887 -2.12288 102.402 113.632H100.629L72.0124 18.9457L43.1809 113.632H41.4081L13.2366 20.5032C7.2508 0.769639 6.58315 -1.23288 -3.17828 -1.23288V-2.78271H35.4147Z" fill="#231F20"/>
<path d="M163.618 -5C188.236 -5 200.661 10.9664 200.661 28.9276C200.661 53.3184 163.618 58.8656 135.231 59.5331C136.122 80.3792 141.002 108.76 163.626 108.76C188.689 108.76 199.111 80.1567 199.111 57.9756H200.661C200.661 81.2615 190.239 110.309 163.618 110.309C132.791 110.532 115.041 89.2409 115.041 50.4336C115.041 15.6236 134.119 -5 163.618 -5ZM135.009 50.4412C135.009 52.6586 135.009 55.3209 135.231 57.9833C170.279 57.3158 183.586 50.8862 183.586 21.3933C183.586 2.76454 178.483 -3.44249 163.626 -3.44249C139.452 -3.44249 135.017 29.3803 135.017 50.4412H135.009Z" fill="#231F20"/>
<path d="M138.155 268.063C144.793 275.122 147.472 283.462 146.19 293.091C145.361 297.694 143.681 301.914 141.148 305.727C138.616 309.548 135.546 312.909 131.932 315.817C124.373 321.709 115.97 325.906 106.707 328.392C97.4443 330.885 88.1049 332.167 78.6812 332.251C68.9274 332.542 59.2197 332.259 49.5657 331.407C39.9117 330.555 30.4802 328.369 21.2637 324.839C15.9916 322.76 10.9804 319.806 6.22246 315.97C1.4722 312.134 -2.14996 307.607 -4.64404 302.397C-7.13812 297.188 -7.65228 291.472 -6.20188 285.242C-4.42149 279.058 -1.24442 273.871 3.32933 269.674C7.89541 265.477 13.0984 261.971 18.9307 259.148C24.763 256.324 30.4419 253.9 35.9595 251.867C31.5162 250.209 27.3339 247.861 23.4124 244.831C19.491 241.8 16.6746 238.002 14.9709 233.437C13.3517 228.205 13.6356 223.164 15.8151 218.307C17.9945 213.45 21.655 210.029 26.8044 208.034C17.0506 199.816 10.7809 189.482 7.99518 177.029C5.75434 165.743 6.75965 154.917 11.0188 144.559C15.2779 134.202 22.1539 125.785 31.662 119.309C41.5846 112.918 52.3284 109.911 63.8932 110.279C75.4504 110.655 86.0099 114.322 95.5565 121.296C100.829 113.164 107.436 106.895 115.386 102.491C123.337 98.0949 132.231 96.43 142.069 97.5118C141.985 98.0105 141.923 98.5706 141.885 99.1921C141.885 101.018 141.532 102.66 140.826 104.11C139.959 105.437 138.769 106.113 137.273 106.136C135.776 106.159 134.242 105.982 132.668 105.606C131.755 105.399 130.926 105.253 130.174 105.169C125.071 104.67 120.29 105.138 115.854 106.573C111.411 108.008 107.444 110.609 103.96 114.384C101.55 117.038 99.3935 119.862 97.4827 122.854C107.405 131.278 113.713 141.866 116.415 154.61C118.487 165.689 117.435 176.316 113.238 186.489C109.04 196.663 102.294 204.965 92.9933 211.394C83.1091 217.87 72.4038 220.969 60.8619 220.701C49.3201 220.432 38.7529 216.849 29.168 209.959C26.0523 210.704 23.374 212.261 21.1332 214.632C20.0512 215.798 19.1379 217.103 18.3936 218.553C17.6492 220.049 17.3269 221.522 17.4266 222.972C17.5264 224.422 17.9178 225.918 18.5777 227.453C20.527 231.979 23.5659 235.693 27.7022 238.601C31.8309 241.509 36.1591 243.772 40.6868 245.383C46.2505 247.416 51.9446 248.851 57.7846 249.68C63.6169 250.508 69.4799 251.092 75.3813 251.421C77.6221 251.544 79.909 251.667 82.2266 251.797C88.7419 252.051 95.3953 252.557 102.187 253.324C108.978 254.092 115.471 255.588 121.679 257.805C127.887 260.022 133.374 263.437 138.155 268.048V268.063ZM50.97 329.205C58.6518 330.118 66.3719 330.287 74.1381 329.704C81.8966 329.121 89.4172 327.379 96.6846 324.471C102.003 322.353 106.929 319.43 111.473 315.694C116.016 311.957 119.477 307.415 121.84 302.06C124.165 296.543 124.795 290.912 123.736 285.188C122.677 279.457 119.968 274.516 115.609 270.372C111.127 266.467 106.009 263.636 100.261 261.871C94.5051 260.107 88.7112 258.956 82.8559 258.419C78.4509 257.958 74.0307 257.629 69.5874 257.421C64.5225 257.176 59.4806 256.769 54.4541 256.209C49.4276 255.649 44.4931 254.621 39.6354 253.125C38.515 253.539 37.3946 253.976 36.2742 254.429C32.5369 255.802 28.8226 257.299 25.1237 258.941C21.4248 260.582 17.9178 262.524 14.5949 264.764C11.3104 267.004 8.38655 269.789 5.81574 273.104C3.24492 276.426 1.43384 280.017 0.397834 283.876C-0.515382 287.651 -0.515382 291.38 0.397834 295.055C1.31105 298.73 2.86889 302.144 5.07135 305.298C8.51701 310.108 12.6917 314.083 17.5878 317.221C22.4838 320.351 27.7559 322.852 33.4041 324.724C39.0522 326.596 44.6773 328.046 50.2794 329.082V329.144C50.5249 329.144 50.7552 329.167 50.9624 329.205H50.97ZM61.9286 112.657C57.777 112.657 54.055 113.57 50.7475 115.396C47.44 117.222 44.5392 119.655 42.0297 122.678C39.5203 125.708 37.3792 129.069 35.6142 132.767C33.8492 136.465 32.4371 140.24 31.3781 144.099C30.3191 147.958 29.5593 151.595 29.1066 154.994C28.2778 161.385 28.2087 168.006 28.8917 174.858C29.5747 181.709 31.2016 188.269 33.7801 194.53C36.3509 200.799 40.0268 206.261 44.8001 210.903C47.4169 213.397 50.3715 215.315 53.679 216.665C56.9788 218.016 60.4322 218.522 64.0467 218.192C67.9528 217.778 71.4905 216.504 74.6599 214.363C77.837 212.223 80.6073 209.645 82.971 206.614C89.1946 198.274 93.0701 188.776 94.5818 178.126C96.0936 167.477 95.6716 157.173 93.308 147.214C92.1875 142.066 90.292 136.872 87.6061 131.616C84.9279 126.368 81.4592 121.926 77.2077 118.289C72.9486 114.66 67.853 112.78 61.921 112.657H61.9286Z" fill="#231F20"/>
<path d="M177.961 221.115C170.571 221.115 163.526 219.727 156.819 216.941C150.111 214.164 144.126 210.144 138.854 204.896C133.582 199.648 129.553 193.655 126.775 186.934C123.997 180.213 122.6 173.155 122.6 165.766C122.6 158.377 123.989 151.334 126.775 144.628C129.553 137.923 133.582 131.938 138.854 126.667C144.126 121.396 150.111 117.383 156.819 114.621C163.526 111.859 170.571 110.478 177.961 110.478C189.004 110.478 199.195 113.547 208.542 119.693C212.939 122.601 216.822 126.046 220.184 130.028C228.94 140.654 233.322 152.569 233.322 165.766C233.322 173.155 231.933 180.213 229.147 186.934C226.369 193.655 222.34 199.648 217.068 204.896C211.796 210.144 205.81 214.164 199.103 216.941C192.396 219.727 185.351 221.115 177.961 221.115ZM177.83 218.629C184.016 218.507 189.625 216.09 194.644 211.379C199.663 206.668 203.684 200.315 206.693 192.328C209.701 184.341 211.205 175.487 211.205 165.774C211.205 156.06 209.701 147.206 206.693 139.219C203.684 131.232 199.663 124.887 194.644 120.199C189.618 115.511 183.993 113.102 177.769 112.98C171.538 112.98 165.828 115.45 160.64 120.391C155.66 125.125 151.685 131.462 148.715 139.411C145.745 147.36 144.264 156.152 144.264 165.781C144.264 175.41 145.745 184.264 148.715 192.213C151.685 200.162 155.66 206.499 160.64 211.233C165.828 216.174 171.515 218.645 177.708 218.645H177.83V218.629Z" fill="#231F20"/>
<path d="M252.706 222.611C251.586 222.611 250.281 222.473 248.785 222.205C247.288 221.936 245.838 221.154 244.426 219.872C243.221 218.714 242.484 217.432 242.216 216.044C241.947 214.655 241.809 213.167 241.809 211.594V112.535H176.265V110.463L241.809 110.049V105.629C241.894 98.0719 241.932 88.0747 241.932 75.6223C241.932 70.85 241.894 68.0265 241.809 67.1519C241.433 64.9959 240.274 63.5228 238.325 62.7325C236.537 62.0267 234.757 61.6737 232.969 61.6737H232.408V59.1802H261.056V110.049H289.266V112.542H261.056V211.164C261.056 211.832 261.117 212.491 261.24 213.159C261.57 214.486 262.629 215.154 264.417 215.154C266.489 215.154 269.19 213.719 272.513 210.857L274.194 212.66C271.615 215.192 268.653 217.348 265.284 219.136C260.925 221.461 256.728 222.619 252.706 222.619V222.611Z" fill="#231F20"/>
<path d="M220.176 232.9C221.826 228.289 223.545 223.501 225.318 218.537C226.614 215.108 228.211 212.215 230.106 209.852C231.994 207.489 233.329 206.1 234.097 205.686C234.864 205.272 235.486 205.011 235.961 204.888H214.858C213.438 204.888 212.172 205.302 211.044 206.131C209.916 206.96 209.179 208.026 208.826 209.323C206.462 216.535 203.861 224.391 201.021 232.908H179.565C180.033 231.841 180.57 230.844 181.161 229.893C184.944 223.394 188.252 219.849 191.091 219.251L179.918 219.074H179.741L169.987 218.721C167.033 218.721 165.022 220.202 163.956 223.156C163.365 224.46 162.628 226.256 161.738 228.565C160.848 230.867 159.996 233.115 159.167 235.302C158.338 237.488 157.509 239.644 156.681 241.769H198.174C195.143 251.268 192.403 259.907 189.917 267.779L165.375 301.154C160.671 307.239 154.762 314.512 147.633 322.975C147.871 320.965 148.162 319.139 148.515 317.481V316.952C148.983 313.883 150.05 309.748 151.708 304.538L151.884 303.832C153.181 299.934 154.747 295.438 156.581 290.359C158.415 285.28 160.986 278.452 164.293 269.881C167.601 261.311 170.087 254.843 171.745 250.47H157.555C156.251 250.47 155.046 250.854 153.918 251.621C152.79 252.388 151.992 253.424 151.524 254.728C150.572 257.329 149.221 261.05 147.449 265.899C137.986 291.073 132.615 307.507 131.31 315.187C129.422 326.067 131.962 331.975 138.938 332.918C142.246 333.386 145.146 333.333 147.625 332.742L174.323 298.715L184.123 286.247C178.59 304.032 175.098 315.724 173.686 321.226C171.208 330.686 171.085 337.391 173.333 341.35C175.582 345.309 180.723 346.76 188.758 345.693C187.101 337.184 196.563 302.551 217.129 241.793H252.775L255.615 232.931H220.145L220.176 232.9Z" fill="#231F20"/>
<path d="M129.177 105.054C129.177 105.054 132.622 105.545 133.819 105.829C135.017 106.113 151.485 110.263 161.477 110.263C161.477 110.263 165.982 109.703 149.513 107.939C149.513 107.939 142.338 106.458 141.064 103.151C139.79 99.8443 129.729 103.857 129.729 103.857L129.169 105.054H129.177Z" fill="#231F20"/>
</g>
</svg>
