<svg width="176" height="66" viewBox="0 0 176 66" fill="none" xmlns="http://www.w3.org/2000/svg">
<path d="M76.7201 49.0533C79.9352 48.3449 80.3784 46.2342 80.3566 43.4442C80.2585 30.9728 80.3166 18.5013 80.313 6.0299C80.313 2.00111 80.0805 1.69596 76.019 0.642439C76.8328 0.431736 77.2941 0.213772 77.7555 0.210139C82.4891 0.148381 87.2226 0.00670063 91.9562 0.101154C101.837 0.297326 108.881 5.89186 111.235 15.5006C112.779 21.8108 112.587 28.1428 110.487 34.3332C107.399 43.4261 100.511 48.6537 90.9135 49.0242C86.1872 49.2022 81.4501 49.0533 76.7201 49.0533ZM87.4297 48.0724C94.4228 48.5774 98.4044 46.2197 101.238 40.2328C103.552 35.3503 104.34 30.159 104.242 24.8551C104.13 18.7339 103.41 12.6779 100.083 7.30139C97.1002 2.48791 92.472 0.348184 87.4297 1.39443C87.4297 16.892 87.4297 32.4005 87.4297 48.0724Z" fill="white"/>
<path d="M44.8531 7.14154C44.824 7.72642 44.7732 8.31131 44.7732 8.89982C44.7913 19.286 44.8095 29.6759 44.8495 40.0621C44.8531 41.0611 45.0021 42.0565 45.0783 43.0555C45.2963 45.9291 46.4297 48.1051 49.4704 48.9915C46.1064 48.9915 42.7461 48.9915 38.4448 48.9915C42.9422 47.5493 43.5744 44.4396 43.5998 41.2246C43.6906 30.0174 43.6506 18.8101 43.6325 7.6029C43.6252 4.01369 41.6599 1.87396 38.3576 0.435367C42.0086 0.435367 45.6669 0.330015 49.3106 0.537086C49.9245 0.573414 50.6038 1.89576 51.0107 2.73857C56.3728 13.7896 61.6876 24.8624 67.0205 35.9279C67.431 36.7817 67.896 37.6136 68.6916 39.1357C68.7824 37.679 68.8624 37.0033 68.8624 36.3239C68.8696 26.9404 68.8951 17.5532 68.8515 8.16962C68.8297 3.85384 67.5001 1.96478 63.108 0.482596C67.3656 0.482596 70.8604 0.482596 74.3588 0.482596C71.2491 1.30361 70.4099 3.69763 70.1883 6.42951C70.0103 8.60193 69.974 10.7925 69.9704 12.9758C69.9486 24.0014 69.9595 35.027 69.9595 46.0526C69.9595 47.0371 69.9595 48.0216 69.9595 48.9843C67.3802 49.8126 65.9852 49.2785 64.8263 46.8445C58.8467 34.275 52.6673 21.7999 46.5496 9.2958C46.1718 8.52201 45.7431 7.77365 45.3399 7.01439C45.1728 7.05435 45.0129 7.09795 44.8531 7.14154Z" fill="white"/>
<path d="M146.496 0.409912C151.611 0.409912 156.726 0.409912 161.91 0.409912C160.46 1.27452 158.571 1.77585 157.906 2.96378C157.143 4.32246 157.35 6.29144 157.347 7.99523C157.31 20.3795 157.329 32.7637 157.329 45.148C157.329 46.1398 157.329 47.1315 157.329 48.5483C159.926 48.5955 162.665 48.0434 164.256 47.8581C168.732 47.3349 169.593 46.3214 170.189 45.9436C170.588 45.6893 171.584 45.0899 172.677 43.6476C173.506 42.5578 175.057 38.4527 175.093 37.7734C175.355 37.9405 175.62 38.1076 175.881 38.2711C174.57 43.5568 174.595 43.6767 173.277 48.9842C164.271 48.9842 155.498 48.9842 146.724 48.9842C150.136 48.0252 150.375 45.5113 150.354 42.5578C150.256 30.446 150.245 18.3342 150.361 6.22605C150.383 3.24714 149.83 1.07835 146.496 0.409912Z" fill="white"/>
<path d="M130.162 49.0642H144.676C141.504 48.403 141.025 45.802 140.411 43.4225C136.927 29.8648 133.512 16.2926 130.01 2.74223C129.792 1.90668 129.134 0.631559 128.546 0.548004C127.314 0.377262 126.057 0.377264 124.822 0.402694L118.519 0.395427C118.519 0.395427 120.841 1.16558 122.392 3.20723C122.403 3.22539 122.414 3.23628 122.425 3.25445C122.628 3.52691 122.821 3.82117 122.988 4.14086C122.991 4.14449 122.991 4.14812 122.995 4.15175C123.147 4.43148 123.271 4.71121 123.358 4.98367C123.384 5.04906 123.405 5.11808 123.427 5.18711L123.078 3.24719C123.224 3.94469 123.358 4.62039 123.456 5.27429C123.536 5.52859 123.602 5.79379 123.649 6.07351C123.612 6.13527 123.583 6.16433 123.558 6.1498C123.612 6.89089 123.587 7.59566 123.42 8.26773C120.605 19.4568 117.393 30.5478 114.262 41.6569C113.422 44.6394 112.652 47.7528 108.435 49.1696H119.791C115.05 47.0407 114.53 45.9545 115.678 40.8904C116.02 39.3828 116.401 37.8861 116.834 36.4039C117.593 33.8064 117.651 30.2244 119.398 28.9166C121.175 27.587 124.641 28.5969 127.354 28.4117C128.956 28.3063 129.599 28.9421 129.941 30.4279C130.773 34.0607 131.783 37.6499 132.618 41.2827C133.003 42.9502 133.679 44.832 133.232 46.3178C132.858 47.5457 131.031 48.3377 130.162 49.0642ZM119.239 27.2492C120.873 21.2805 122.497 15.3408 124.125 9.40117C124.321 9.36847 124.517 9.33941 124.713 9.30672C126.177 15.1773 127.645 21.0516 129.192 27.2492H119.239Z" fill="white"/>
<path d="M21.861 49.0642H36.3741C33.2027 48.403 32.7231 45.802 32.1092 43.4225C28.6253 29.8648 25.2105 16.2926 21.7084 2.74223C21.4905 1.90668 20.8329 0.631559 20.2444 0.548004C19.0129 0.377262 17.756 0.377264 16.5208 0.402694L10.2179 0.395427C10.2179 0.395427 12.5392 1.16558 14.0904 3.20723C14.1013 3.22539 14.1122 3.23628 14.1231 3.25445C14.3266 3.52691 14.5191 3.82117 14.6862 4.14086C14.6899 4.14449 14.6899 4.14812 14.6935 4.15175C14.8461 4.43148 14.9696 4.71121 15.0568 4.98367C15.0822 5.04906 15.104 5.11808 15.1258 5.18711L14.777 3.24719C14.9224 3.94469 15.0568 4.62039 15.1549 5.27429C15.2348 5.52859 15.3002 5.79379 15.3474 6.07351C15.3111 6.13527 15.282 6.16433 15.2566 6.1498C15.3111 6.89089 15.2856 7.59566 15.1185 8.26773C12.3031 19.4568 9.09169 30.5478 5.96021 41.6569C5.12103 44.6394 4.35087 47.7528 0.133179 49.1696H11.4893C6.74853 47.0407 6.22904 45.9545 7.37701 40.8904C7.71849 39.3828 8.09994 37.8861 8.53224 36.4039C9.2915 33.8064 9.34962 30.2244 11.097 28.9166C12.8735 27.587 16.3392 28.5969 19.0529 28.4117C20.6549 28.3063 21.2979 28.9421 21.6394 30.4279C22.4713 34.0607 23.4813 37.6499 24.3168 41.2827C24.7019 42.9502 25.3776 44.832 24.9308 46.3178C24.5566 47.5457 22.7293 48.3377 21.861 49.0642ZM10.9372 27.2492C12.5719 21.2805 14.1958 15.3408 15.8233 9.40117C16.0195 9.36847 16.2156 9.33941 16.4118 9.30672C17.8758 15.1773 19.3435 21.0516 20.8911 27.2492H10.9372Z" fill="white"/>
<path d="M41.6817 60.045C41.6817 56.6083 43.3346 54.7955 45.6051 54.7955C46.546 54.7955 47.7012 55.137 48.0136 55.3368C48.1699 55.4349 48.2135 55.5512 48.2135 55.751V57.6328C48.2135 57.7345 48.1408 57.8035 48.0427 57.8035H47.9446C47.8465 57.8035 47.7739 57.7599 47.7448 57.6618C47.2471 55.8926 46.4334 55.3368 45.5215 55.3368C44.2537 55.3368 43.2692 56.6483 43.2692 59.5582C43.2692 62.9512 44.5261 65.0074 45.9066 65.0074C46.5642 65.0074 47.189 64.5496 47.189 63.6814V60.8587C47.189 60.5027 46.862 60.2302 46.4043 60.1467C46.2917 60.1176 46.2336 60.074 46.2336 59.9469V59.8742C46.2336 59.7325 46.2772 59.7035 46.3607 59.7035C46.9456 59.7035 47.3743 59.7761 47.8865 59.7761C48.3987 59.7761 48.8565 59.7035 49.4413 59.7035C49.5285 59.7035 49.5685 59.7325 49.5685 59.8742V59.9469C49.5685 60.074 49.5249 60.1176 49.4559 60.1321C48.9727 60.2048 48.6131 60.4882 48.6131 60.8587C48.5985 62.043 48.4859 63.7831 48.9255 64.081C49.1108 64.2081 49.1979 64.2227 49.1979 64.3244V64.4116C49.1979 64.5097 49.1398 64.5823 49.0272 64.5823C47.3743 64.6695 47.3452 65.5523 45.7032 65.5523C43.5526 65.5487 41.6817 63.6087 41.6817 60.045Z" fill="white"/>
<path d="M49.7138 65.1636V65.091C49.7138 64.9638 49.7719 64.9202 49.8845 64.8912C50.3423 64.804 50.6692 64.5351 50.6692 64.1791V56.107C50.6692 55.751 50.3423 55.4785 49.8845 55.395C49.7719 55.3659 49.7138 55.3223 49.7138 55.1952V55.1225C49.7138 54.9808 49.7574 54.9518 49.841 54.9518C50.3241 54.9518 51.3086 54.9954 52.8635 54.9954C53.8915 54.9954 54.5309 54.9663 55.8024 54.9518C56.3292 54.9518 56.4163 55.0499 56.4163 55.4095V57.3494C56.4163 57.4221 56.3582 57.4766 56.2892 57.4766H56.1766C56.1039 57.4766 56.0349 57.4185 56.0204 57.3058C55.7624 55.8781 55.0795 55.4931 53.3248 55.4931H52.8671C52.4529 55.4931 52.0969 55.7365 52.0969 56.107V59.7289H53.7099C54.3674 59.7289 54.8506 59.3729 54.9233 58.5446C54.9378 58.4574 54.9814 58.4175 55.1085 58.4175H55.1812C55.3229 58.4175 55.3519 58.4611 55.3519 58.5446C55.3519 59.0714 55.3083 59.4419 55.3083 59.9869C55.3083 60.5572 55.3519 60.8696 55.3519 61.4545C55.3519 61.5417 55.3229 61.5817 55.1812 61.5817H55.1085C54.9814 61.5817 54.9378 61.5235 54.9233 61.3964C54.8252 60.5972 54.3529 60.2702 53.7099 60.2702H52.0969V64.1791C52.0969 64.5497 52.4529 64.7931 52.8671 64.7931H53.4956C55.2502 64.7931 55.9332 64.408 56.1911 62.9803C56.2056 62.8677 56.2783 62.8095 56.3473 62.8095H56.4599C56.5326 62.8095 56.5871 62.8677 56.5871 62.9367V64.8766C56.5871 65.2326 56.4999 65.3344 55.9731 65.3344C54.7053 65.3198 54.0623 65.2908 52.8635 65.2908C51.3086 65.2908 50.3241 65.3344 49.841 65.3344C49.7538 65.3344 49.7138 65.3053 49.7138 65.1636Z" fill="white"/>
<path d="M56.8014 65.1636V65.091C56.8014 64.9638 56.845 64.9202 56.914 64.9057C57.3282 64.833 57.7133 64.5497 57.7278 64.1791L58.0257 56.107C58.0402 55.7365 57.6115 55.4495 57.1974 55.3805C57.1247 55.3659 57.0848 55.3223 57.0848 55.1952V55.1225C57.0848 54.9808 57.1284 54.9518 57.2119 54.9518H59.4643L61.5749 62.0249L63.8128 54.9518H65.9815C66.0687 54.9518 66.1087 54.9808 66.1087 55.1225V55.1952C66.1087 55.3223 66.0651 55.3659 65.9961 55.3805C65.5819 55.4531 65.1533 55.7365 65.1678 56.107L65.3821 64.1791C65.3967 64.5497 65.7817 64.8367 66.1959 64.9057C66.2685 64.9202 66.3085 64.9638 66.3085 65.091V65.1636C66.3085 65.3053 66.2649 65.3344 66.1813 65.3344C65.6691 65.3344 65.2114 65.2617 64.6992 65.2617C64.1869 65.2617 63.7583 65.3344 63.1007 65.3344C63.0135 65.3344 62.9736 65.3053 62.9736 65.1636V65.091C62.9736 64.9638 63.0317 64.9202 63.1443 64.9057C63.6711 64.804 63.9726 64.5351 63.9581 64.1791L63.7728 56.9753L61.4042 64.477C61.3751 64.5642 61.317 64.6187 61.2189 64.6187H61.0191C60.921 64.6187 60.8629 64.5606 60.8338 64.477L58.5379 57.0479L58.2945 64.1791C58.28 64.5351 58.5779 64.8076 59.2499 64.9057C59.3626 64.9202 59.4207 64.9638 59.4207 65.091V65.1636C59.4207 65.3053 59.3771 65.3344 59.2935 65.3344H56.9249C56.845 65.3344 56.8014 65.3053 56.8014 65.1636Z" fill="white"/>
<path d="M66.8571 64.9093C66.7154 64.7822 66.6718 64.6514 66.6718 64.4516V62.1992C66.6718 62.1011 66.7444 62.0285 66.8425 62.0285H66.9406C67.0387 62.0285 67.1114 62.0721 67.1404 62.1702C67.5982 64.1101 68.6081 65.0074 69.8505 65.0074C70.864 65.0074 71.4489 64.1937 71.4489 63.3399C71.4489 60.8733 66.7844 59.8452 66.7844 57.2368C66.7844 55.8091 67.8525 54.7992 69.5817 54.7992C70.5371 54.7992 71.5071 55.0862 71.8776 55.3986C72.0193 55.5258 72.0629 55.6565 72.0629 55.8563V57.611C72.0629 57.7091 71.9902 57.7817 71.8921 57.7817H71.7795C71.6814 57.7817 71.6088 57.7381 71.5797 57.6401C71.0966 55.9581 70.1666 55.3441 69.2983 55.3441C68.6553 55.3441 68.1285 55.9145 68.1285 56.7282C68.1285 58.9515 72.6768 59.7943 72.6768 62.8059C72.6768 64.4044 71.7214 65.5596 69.6398 65.5596C68.51 65.5487 67.1404 65.1636 66.8571 64.9093Z" fill="white"/>
<path d="M81.8024 60.7279C81.8024 61.0839 82.3292 61.2837 82.3292 61.6979C82.3292 62.1556 81.9005 62.4099 81.4718 62.4099C80.916 62.4099 80.6436 62.0248 80.6436 61.5962C80.6436 60.5826 82.1548 59.5 83.0667 59.5C84.1928 59.5 84.9339 61.2547 85.4752 61.2547C85.7731 61.2547 85.9729 60.9277 86.1727 59.9723C86.1872 59.8706 86.2599 59.8161 86.358 59.8161H86.4851C86.5977 59.8161 86.6559 59.8888 86.6413 60.0014C86.3834 61.4145 85.8857 62.2973 85.1591 62.2973C84.5888 62.2973 84.1456 61.8396 83.7315 61.3564C83.0884 63.9248 81.1631 65.5487 79.2231 65.5487C77.483 65.5487 76.128 64.1646 76.0989 62.0684C76.0553 59.3293 77.9371 57.2332 79.779 57.2332C80.7053 57.2332 81.0904 57.789 81.0904 58.3884C81.0904 58.501 81.0904 58.5882 81.0613 58.7008C82.0168 57.789 82.5871 56.9171 82.5871 56.4194C82.5871 55.9217 82.2311 55.6347 82.2311 55.2351C82.2311 54.8064 82.6017 54.563 83.0303 54.563C83.4299 54.563 83.9712 54.8609 83.9712 55.5475C83.9712 55.6892 83.9567 55.8454 83.8986 56.0053C83.4263 57.4584 80.6181 60.0849 77.3668 61.6834C77.3668 61.8396 77.3813 62.0248 77.3958 62.1956C77.523 63.7795 78.5947 64.7785 79.7499 64.7785C81.203 64.7785 82.8886 63.3944 83.3863 60.9423C83.0594 60.5572 82.7433 60.2593 82.4018 60.2593C82.0168 60.2593 81.8024 60.4155 81.8024 60.7279ZM79.6082 59.9142C79.7935 59.5582 79.9061 59.144 79.9061 58.7299C79.9061 58.0578 79.7354 57.6873 79.3503 57.6873C78.4675 57.6873 77.5121 59.184 77.3958 61.1966C78.195 60.8297 78.9507 60.3865 79.6082 59.9142Z" fill="white"/>
<path d="M89.2606 64.1791C89.2606 63.7069 89.573 63.2528 90.0308 63.2528C91.1424 63.2528 90.543 64.8367 91.3277 64.8367C91.7563 64.8367 91.9852 64.4371 91.9852 63.3254V56.107C91.9852 55.751 91.6583 55.4785 90.9172 55.3805C90.8045 55.3659 90.7464 55.3223 90.7464 55.1952V55.1225C90.7464 54.9808 90.79 54.9518 90.8736 54.9518C91.7418 54.9518 92.1705 55.0244 92.6863 55.0244C93.1986 55.0244 93.6563 54.9518 94.2412 54.9518C94.3284 54.9518 94.3683 54.9808 94.3683 55.1225V55.1952C94.3683 55.3223 94.3247 55.3659 94.2557 55.3805C93.7689 55.4531 93.4129 55.7365 93.4129 56.107V62.6097C93.4129 64.1791 92.5011 65.5487 90.859 65.5487C89.7183 65.5487 89.2606 64.7495 89.2606 64.1791Z" fill="white"/>
<path d="M94.6517 65.1636V65.091C94.6517 64.9638 94.7098 64.9202 94.8224 64.8912C95.2802 64.804 95.6071 64.5351 95.6071 64.1791V56.107C95.6071 55.751 95.2802 55.4785 94.8224 55.395C94.7098 55.3659 94.6517 55.3223 94.6517 55.1952V55.1225C94.6517 54.9808 94.6953 54.9518 94.7789 54.9518C95.262 54.9518 96.2465 54.9954 97.8014 54.9954C98.8294 54.9954 99.4688 54.9663 100.74 54.9518C101.267 54.9518 101.354 55.0499 101.354 55.4095V57.3494C101.354 57.4221 101.296 57.4766 101.227 57.4766H101.114C101.042 57.4766 100.973 57.4185 100.958 57.3058C100.7 55.8781 100.017 55.4931 98.2627 55.4931H97.805C97.3908 55.4931 97.0348 55.7365 97.0348 56.107V59.7289H98.6478C99.3053 59.7289 99.7885 59.3729 99.8612 58.5446C99.8757 58.4574 99.9193 58.4175 100.046 58.4175H100.119C100.261 58.4175 100.29 58.4611 100.29 58.5446C100.29 59.0714 100.246 59.4419 100.246 59.9869C100.246 60.5572 100.29 60.8696 100.29 61.4545C100.29 61.5417 100.261 61.5817 100.119 61.5817H100.046C99.9193 61.5817 99.8757 61.5235 99.8612 61.3964C99.7594 60.5972 99.2908 60.2702 98.6478 60.2702H97.0348V64.1791C97.0348 64.5497 97.3908 64.7931 97.805 64.7931H98.4335C100.188 64.7931 100.871 64.408 101.129 62.9803C101.144 62.8677 101.216 62.8095 101.285 62.8095H101.398C101.47 62.8095 101.525 62.8677 101.525 62.9367V64.8766C101.525 65.2326 101.438 65.3344 100.911 65.3344C99.6432 65.3198 99.0002 65.2908 97.8014 65.2908C96.2465 65.2908 95.262 65.3344 94.7789 65.3344C94.6953 65.3344 94.6517 65.3053 94.6517 65.1636Z" fill="white"/>
<path d="M105.536 65.1927L102.953 56.107C102.826 55.6783 102.44 55.4495 101.856 55.395C101.783 55.3805 101.743 55.3369 101.743 55.2097V55.137C101.743 54.9954 101.787 54.9663 101.87 54.9663C102.597 54.9663 103.098 55.039 103.683 55.039C104.326 55.039 104.965 54.9663 105.623 54.9663C106.081 54.9663 106.978 55.039 107.392 55.039C108.006 55.039 108.435 54.9663 109.375 54.9663C109.463 54.9663 109.503 54.9954 109.503 55.137V55.2097C109.503 55.3369 109.445 55.3805 109.332 55.395C108.547 55.4967 108.22 55.7365 108.333 56.1797L110.073 62.726L111.813 56.2632C111.955 55.751 111.686 55.4785 110.872 55.3805C110.76 55.3659 110.701 55.3223 110.701 55.1952V55.1225C110.701 54.9808 110.745 54.9518 110.829 54.9518C111.486 54.9518 111.984 55.0244 112.296 55.0244C112.638 55.0244 113.037 54.9518 113.539 54.9518C113.626 54.9518 113.666 54.9808 113.666 55.1225V55.1952C113.666 55.3223 113.622 55.3659 113.553 55.3805C112.954 55.4531 112.569 55.6783 112.413 56.2487L109.931 65.1927C109.902 65.2799 109.833 65.3344 109.732 65.3344H109.575C109.477 65.3344 109.419 65.2762 109.39 65.1927L107.763 59.758L106.081 65.1927C106.051 65.2799 105.993 65.3344 105.895 65.3344H105.739C105.634 65.3344 105.565 65.2799 105.536 65.1927ZM106.262 62.8386L107.49 58.8462L106.662 56.107C106.535 55.6929 106.164 55.395 105.594 55.395C104.838 55.395 104.511 55.7365 104.624 56.1797L106.262 62.8386Z" fill="white"/>
<path d="M113.88 65.1636V65.091C113.88 64.9638 113.938 64.9202 114.051 64.8912C114.509 64.804 114.836 64.5351 114.836 64.1791V56.107C114.836 55.751 114.509 55.4785 114.051 55.395C113.938 55.3659 113.88 55.3223 113.88 55.1952V55.1225C113.88 54.9808 113.924 54.9518 114.007 54.9518C114.491 54.9518 115.475 54.9954 117.03 54.9954C118.058 54.9954 118.697 54.9663 119.969 54.9518C120.496 54.9518 120.583 55.0499 120.583 55.4095V57.3494C120.583 57.4221 120.525 57.4766 120.456 57.4766H120.343C120.27 57.4766 120.201 57.4185 120.187 57.3058C119.929 55.8781 119.246 55.4931 117.491 55.4931H117.033C116.619 55.4931 116.263 55.7365 116.263 56.107V59.7289H117.876C118.534 59.7289 119.017 59.3729 119.09 58.5446C119.104 58.4574 119.148 58.4175 119.275 58.4175H119.348C119.489 58.4175 119.518 58.4611 119.518 58.5446C119.518 59.0714 119.475 59.4419 119.475 59.9869C119.475 60.5572 119.518 60.8696 119.518 61.4545C119.518 61.5417 119.489 61.5817 119.348 61.5817H119.275C119.148 61.5817 119.104 61.5235 119.09 61.3964C118.988 60.5972 118.519 60.2702 117.876 60.2702H116.263V64.1791C116.263 64.5497 116.619 64.7931 117.033 64.7931H117.662C119.417 64.7931 120.1 64.408 120.357 62.9803C120.372 62.8677 120.445 62.8095 120.514 62.8095H120.626C120.699 62.8095 120.753 62.8677 120.753 62.9367V64.8766C120.753 65.2326 120.666 65.3344 120.14 65.3344C118.872 65.3198 118.229 65.2908 117.03 65.2908C115.475 65.2908 114.491 65.3344 114.007 65.3344C113.92 65.3344 113.88 65.3053 113.88 65.1636Z" fill="white"/>
<path d="M121.182 65.1636V65.091C121.182 64.9638 121.24 64.9202 121.353 64.8912C121.811 64.804 122.138 64.5351 122.138 64.1791V56.107C122.138 55.751 121.811 55.4785 121.353 55.395C121.24 55.3659 121.182 55.3223 121.182 55.1952V55.1225C121.182 54.9808 121.226 54.9518 121.309 54.9518C121.894 54.9518 122.323 55.0244 122.835 55.0244C123.347 55.0244 123.805 54.9518 124.39 54.9518C124.477 54.9518 124.517 54.9808 124.517 55.1225V55.1952C124.517 55.3223 124.473 55.3659 124.404 55.3805C123.918 55.4531 123.562 55.7365 123.562 56.107V64.1791C123.562 64.5497 123.918 64.7931 124.332 64.7931H124.79C126.544 64.7931 127.227 64.408 127.485 62.9803C127.5 62.8677 127.572 62.8095 127.641 62.8095H127.754C127.827 62.8095 127.881 62.8677 127.881 62.9367V64.8766C127.881 65.2326 127.794 65.3344 127.267 65.3344C125.999 65.3198 125.356 65.2908 124.328 65.2908C122.773 65.2908 121.789 65.3344 121.306 65.3344C121.226 65.3344 121.182 65.3053 121.182 65.1636Z" fill="white"/>
<path d="M128.499 64.9093C128.357 64.7822 128.313 64.6514 128.313 64.4516V62.1992C128.313 62.1011 128.386 62.0285 128.484 62.0285H128.582C128.684 62.0285 128.753 62.0721 128.782 62.1702C129.24 64.1101 130.25 65.0074 131.492 65.0074C132.506 65.0074 133.09 64.1937 133.09 63.3399C133.09 60.8733 128.426 59.8452 128.426 57.2368C128.426 55.8091 129.494 54.7992 131.22 54.7992C132.175 54.7992 133.145 55.0862 133.516 55.3986C133.657 55.5258 133.701 55.6565 133.701 55.8563V57.611C133.701 57.7091 133.628 57.7817 133.53 57.7817H133.417C133.319 57.7817 133.247 57.7381 133.218 57.6401C132.731 55.9581 131.804 55.3441 130.936 55.3441C130.293 55.3441 129.766 55.9145 129.766 56.7282C129.766 58.9515 134.315 59.7943 134.315 62.8059C134.315 64.4044 133.359 65.5596 131.278 65.5596C130.152 65.5487 128.782 65.1636 128.499 64.9093Z" fill="white"/>
</svg>
