<svg width="179" height="59" viewBox="0 0 179 59" fill="none" xmlns="http://www.w3.org/2000/svg">
<path fill-rule="evenodd" clip-rule="evenodd" d="M36.2451 26.2922C35.0084 25.4912 31.317 24.6532 29.5968 24.2656C27.5887 23.8116 24.0966 23.5569 21.9888 23.6971C4.81642 24.8267 -5.58596 47.503 3.16637 51.5193C7.21215 53.3724 22.7197 50.888 24.4141 48.3336C19.224 49.6809 11.6677 50.0538 8.135 48.5403C2.53883 46.1446 7.42625 39.788 9.1243 37.6248C14.1889 31.1685 22.1697 26.3882 32.214 26.1372C33.8973 26.0929 35.3111 26.3439 36.2451 26.2922Z" fill="white"/>
<path fill-rule="evenodd" clip-rule="evenodd" d="M18.8807 35.0076C18.9324 36.3624 20.4311 39.4447 21.1324 40.8843C21.9482 42.5639 23.8235 45.1516 25.2078 46.5359C36.4629 57.8057 62.0517 51.128 60.2318 42.5676C59.3939 38.6104 47.9763 29.3265 44.7796 29.7178C49.0432 32.5048 53.8863 37.5399 54.7132 40.936C56.0236 46.3107 47.6663 46.8054 44.8054 46.9493C36.2635 47.3849 27.4004 44.7566 21.162 37.9128C20.1173 36.7684 19.4861 35.6278 18.8807 35.0076Z" fill="white"/>
<path fill-rule="evenodd" clip-rule="evenodd" d="M37.2897 39.9283C38.4082 39.1752 40.1986 36.3402 41.0402 35.015C42.0147 33.472 43.1738 30.5816 43.5799 28.7212C46.9058 13.5938 26.9944 -3.97362 20.719 1.97693C17.8176 4.72702 16.2782 18.95 18.386 21.3753C18.386 16.4177 19.9733 9.81378 22.4023 7.37007C26.2414 3.50148 31.317 10.1165 33.0262 12.3904C38.1461 19.1899 40.8446 27.8463 38.4931 36.5432C38.0981 37.994 37.478 39.1088 37.2897 39.9283Z" fill="white"/>
<path fill-rule="evenodd" clip-rule="evenodd" d="M126.511 14.3099C126.511 22.18 131.044 27.2114 138.877 27.2114C139.018 28.8946 140.35 30.9397 141.48 32.0323C142.687 33.2025 144.699 34.1032 147.002 34.1032C149.04 34.1032 151.638 32.372 152.657 31.4306C153.089 31.0283 152.964 31.5746 152.986 30.8917C153.012 30.146 152.321 30.4487 151.816 30.5853C148.659 31.4565 144.241 31.2461 142.329 28.8799C141.897 28.352 141.413 27.802 141.35 27.0305C144.676 26.2553 146.95 25.5428 149.154 22.8149C152.137 19.1235 152.916 12.9958 151.273 8.45164C147.091 -3.10616 126.511 -1.03897 126.511 14.3099ZM139.394 2.09873C141.882 2.09873 144.651 3.24306 146.271 5.36562C147.866 7.45496 148.331 10.4967 148.331 13.6639C148.331 16.9087 147.899 20.5262 146.234 22.6266C144.625 24.6643 141.816 25.2291 139.387 25.2291C137.187 25.2291 134.916 24.5462 133.355 22.837C131.413 20.7182 130.446 17.2003 130.446 13.6602C130.446 10.4487 130.941 6.94185 132.576 4.84883C134.2 2.77795 136.939 2.09873 139.394 2.09873Z" fill="white"/>
<path fill-rule="evenodd" clip-rule="evenodd" d="M152.661 25.7939C152.82 26.115 152.798 26.0153 152.834 26.5026H160.435V25.6204C159.848 25.6056 158.135 25.1663 158.135 24.7381C158.135 23.5199 160.406 18.9611 160.782 17.3184H169.265C170.505 22.6525 173.115 24.727 170.321 25.4432C169.39 25.6794 169.287 25.4616 169.265 26.5063H178.456C178.32 24.8821 177.117 25.923 175.769 24.775C175.197 24.2914 174.688 22.4457 174.366 21.5856L166.973 1.4158C164.451 2.00274 165.426 1.15741 162.982 6.96768C161.402 10.7292 157.312 21.0799 155.847 24.0441C155.123 25.517 153.916 25.1922 152.661 25.7939ZM168.888 15.3693L161.454 15.2475L165.352 5.57602L168.888 15.3693Z" fill="white"/>
<path fill-rule="evenodd" clip-rule="evenodd" d="M135.703 37.9829C136.415 38.149 137.109 38.3484 137.821 38.5108V49.9947C137.109 50.1608 136.507 50.4562 135.703 50.5226V51.2314H142.768V50.5226C142.078 50.5078 141.302 50.2236 140.823 49.9947C140.823 48.7618 140.649 48.2672 140.649 46.9936V39.5739C140.649 38.0789 147.36 36.75 147.36 41.3384V49.6404C147.36 50.2716 146.064 50.5078 145.415 50.5226V51.2314H152.307C152.181 49.7326 150.804 50.925 150.295 49.7068C149.796 48.5145 150.671 42.0582 150.007 39.2121C150.568 39.0608 150.889 38.7175 151.439 38.5218C154.13 37.5584 156.899 38.2487 156.899 42.0361V49.2823C156.899 50.0058 156.773 50.039 156.279 50.2531C155.902 50.4192 155.418 50.5115 154.953 50.5189V51.2277H162.019C161.923 50.0538 161.195 50.6112 159.9 49.991C158.737 44.9855 161.971 36.3882 155.662 36.3882C152.572 36.3882 152.318 36.6688 149.833 38.3336C148.907 37.2483 149.088 36.3882 144.887 36.3882C143.137 36.3882 141.768 37.4255 140.649 37.9792V36.3882C139.767 36.4067 137.954 36.9604 136.677 37.1819C135.847 37.3332 135.776 37.1228 135.703 37.9829Z" fill="white"/>
<path fill-rule="evenodd" clip-rule="evenodd" d="M64.4991 34.6274C64.4991 42.6193 75.4552 40.1867 75.4552 46.6392C75.4552 50.2826 71.0993 50.8179 68.1425 50.0649C67.1532 49.8138 67.0941 49.8914 66.8579 48.8762L66.175 45.8493C65.972 45.2365 66.1934 45.3952 65.5622 45.2254C65.0491 45.7164 65.2706 45.5023 65.1488 46.403C65.1045 46.7168 65.0122 47.4661 64.9347 47.9534C64.7907 48.8541 64.5212 50.039 64.5028 50.877C65.5954 50.9028 67.1421 51.5857 68.7405 51.5857C71.9557 51.5857 73.8531 51.8773 76.3633 49.8434C79.0026 47.7134 79.0949 43.5015 76.8284 41.3716C74.6763 39.345 69.9033 38.4148 68.3012 36.2922C66.3374 33.6935 67.825 30.0279 71.9188 30.0279C73.1444 30.0279 74.0783 30.4746 75.1008 30.5558C75.2079 31.8219 75.876 33.173 75.983 34.4465H76.6918C76.7546 33.6898 77.0572 32.6193 77.1717 31.9253C77.3267 31.0246 77.574 30.1977 77.574 29.3265C76.2008 29.3265 75.374 28.9722 73.8642 28.9722H71.0366C67.6036 28.9722 64.4991 31.2055 64.4991 34.6274Z" fill="white"/>
<path fill-rule="evenodd" clip-rule="evenodd" d="M120.509 44.166C120.509 48.4886 123.303 51.5857 126.873 51.5857C129.464 51.5857 130.361 51.7112 132.716 50.5374C133.3 50.2457 133.392 50.3159 133.41 49.4595C131.76 49.4595 125.714 51.1723 123.993 46.3329C123.779 45.7312 123.532 44.166 123.517 43.4536H133.591V42.0435C133.591 38.9464 131.535 36.3882 128.464 36.3882H127.227C123.015 36.3956 120.509 39.9209 120.509 44.166ZM130.572 42.2723H123.613C123.602 42.0361 123.61 41.7924 123.628 41.5451C123.842 39.1752 125.765 37.2188 127.692 37.3369C129.619 37.4477 130.819 39.5887 130.608 41.9585C130.601 42.0619 130.586 42.169 130.572 42.2723Z" fill="white"/>
<path fill-rule="evenodd" clip-rule="evenodd" d="M66.0864 9.36341V10.4265C65.0712 10.4265 64.7427 10.6 63.6131 10.6V11.4823C64.4179 11.5487 65.3481 11.8403 66.0864 12.0102L66.0901 23.1434C66.1012 24.022 66.2082 24.7824 65.4921 25.1959C64.3662 25.8419 63.6501 24.9928 63.6168 26.4952H72.0997V25.7865C71.8265 25.7237 69.811 25.1257 69.6892 25.015C69.3311 24.6791 69.4456 24.3911 69.3644 23.7488C69.165 22.2464 69.2721 14.5535 69.2721 12.5306C69.2721 11.6078 71.1436 12.0028 73.6907 12.0028V10.4229C67.8361 10.4229 69.4086 10.8547 69.4529 7.42174C69.4788 5.62771 70.0067 3.00681 71.4648 2.01382C72.395 1.3789 73.1074 1.41213 74.5766 1.41213C74.7427 2.12457 74.9827 2.68935 75.2152 3.42025C75.7136 5.00018 75.3334 4.92265 76.3411 4.9448C76.5921 4.41693 76.4519 4.43539 76.5995 3.7857C76.6955 3.3538 76.8025 3.12494 76.9539 2.71519C77.7623 0.533572 77.5445 0.0758398 76.0052 -0.00537109H73.3437C68.6298 -0.00167969 66.0864 5.0297 66.0864 9.36341Z" fill="white"/>
<path fill-rule="evenodd" clip-rule="evenodd" d="M107.788 22.6119C107.788 25.0519 106.042 25.4395 103.724 25.4395C101.465 25.4395 101.601 24.8083 100.882 22.4531C100.623 21.6152 100.789 21.3974 99.8406 21.3752L98.7775 25.9673C99.5342 26.0301 100.52 26.4657 101.295 26.6318C105.898 27.6063 110.97 26.3217 110.97 22.0766C110.97 19.2268 109.863 18.2265 106.751 17.1043C104.399 16.259 101.779 15.9267 101.779 13.5938C101.779 10.6259 106.293 11.3641 107.607 11.4749C107.762 12.1504 107.976 12.6524 108.205 13.3501C108.726 14.9522 108.478 14.8082 109.376 14.8304C109.505 14.5535 110.247 10.8916 110.258 10.4118C107.198 9.69932 102.45 8.79124 100.077 11.7148C99.5084 12.4125 99.2278 12.9515 99.0359 14.0441C98.4785 17.2224 101.033 18.7433 103.698 19.6218C104.429 19.8655 105.614 20.1792 106.323 20.5336C107.002 20.8843 107.788 21.689 107.788 22.6119Z" fill="white"/>
<path fill-rule="evenodd" clip-rule="evenodd" d="M80.7523 58.832C80.9074 58.9206 81.1584 58.9759 81.4648 59.0055H84.4622C85.9425 59.0055 86.319 58.2524 86.57 57.0527C86.8173 55.8788 87.061 54.9634 87.3563 53.7747C88.1388 50.6407 89.3016 47.4698 90.4644 44.5167L92.9561 38.7064C93.7387 36.7795 95.1045 38.293 95.2337 36.7463H89.7594V37.2741L91.5202 37.8316C91.4722 38.5071 91.0145 39.5038 90.7487 40.2014C90.2799 41.427 88.065 46.6983 87.9986 47.5178H87.6442C87.5814 46.7352 87.1237 45.8641 86.8358 45.1479C86.3374 43.9002 84.189 38.7286 84.1115 37.802C85.9203 37.3812 85.817 37.4366 85.876 36.7389H78.9842C79.1207 38.3483 80.3389 36.7094 81.2285 38.7359L85.1082 48.1084C86.7177 51.6965 86.6328 50.9324 84.9901 54.2325C83.2883 57.6507 83.3105 57.2336 81.2839 58.1269C80.5124 58.4739 80.8372 58.0678 80.7523 58.832Z" fill="white"/>
<path fill-rule="evenodd" clip-rule="evenodd" d="M115.381 10.4228C114.241 10.4228 113.79 10.5963 112.554 10.5963C112.572 11.5598 112.694 11.3974 113.484 11.6041C114.06 11.7591 114.477 11.881 115.027 12.0065C115.027 13.8485 114.754 23.6713 115.319 24.9633C116.684 28.1158 121.867 26.6835 123.713 25.6241C124.167 25.362 124.329 25.5465 124.189 24.9338C123.99 24.0663 123.159 24.9005 120.682 24.9005C119.353 24.9005 118.383 23.9777 118.383 22.6008V12.538C118.383 12.132 118.504 12.0101 118.91 12.0101H123.683V10.4192H118.91C117.7 10.4192 118.8 6.81634 118.526 6.03007C118.309 5.40992 118.183 5.64248 117.663 5.77168C117.401 5.83812 116.751 6.03377 116.6 6.15927C116.297 6.41767 115.396 9.71041 115.381 10.4228Z" fill="white"/>
<path fill-rule="evenodd" clip-rule="evenodd" d="M84.8166 10.9544C84.9052 12.0175 86.3633 12.1135 87.2898 12.191L87.2861 24.5536C87.1496 25.3472 86.7472 25.2328 86.0348 25.421C85.9831 25.4358 85.2337 25.6721 85.23 25.6721C84.6948 25.9821 84.9015 25.613 84.8166 26.3217C85.5253 26.7204 92.1551 26.4952 93.4729 26.4952V25.7865C92.9451 25.6647 92.6793 25.5539 92.096 25.3989C90.505 24.9818 91.0329 25.1368 90.8262 24.7308L90.6527 12.8924C91.3836 12.6968 93.6317 11.0725 94.5951 13.3686C94.8535 13.9814 95.1857 14.6864 95.2448 15.373H96.1271L96.9466 10.8732C97.1053 10.146 97.3194 9.7178 96.6549 9.7178C94.381 9.7178 92.0222 10.9138 90.6453 11.8367C90.6453 9.31544 90.9406 9.55169 88.604 10.1497L84.8166 10.9544Z" fill="white"/>
<path fill-rule="evenodd" clip-rule="evenodd" d="M163.971 39.9283C163.971 42.5455 164.171 43.712 167.574 44.9818C169.305 45.6278 171.746 45.7681 171.746 48.0567C171.746 50.3491 169.091 50.3565 167.681 50.3565C166.441 50.3565 166.227 50.0316 165.932 49.1051C165.71 48.4037 165.271 47.3701 165.208 46.6466H164.499C164.499 47.4809 163.875 50.1682 163.617 50.7109C164.138 50.8327 164.75 51.0948 165.359 51.2646C166.969 51.7149 168.095 51.5931 169.8 51.5931C173.994 51.5931 177.611 45.1885 170.837 42.9552C168.785 42.2797 166.264 41.7814 166.264 39.7548C166.264 36.8792 171.007 37.802 171.565 37.8094C171.642 38.7544 172.225 39.8544 172.447 40.8105H173.156C173.259 39.5739 173.835 38.1712 173.864 36.9198C171.993 36.0228 167.386 36.1446 165.629 37.348C164.99 37.7909 163.971 38.3963 163.971 39.9283Z" fill="white"/>
<path fill-rule="evenodd" clip-rule="evenodd" d="M96.2968 40.2826C96.2968 42.8297 96.9798 43.8855 99.8074 44.9006C101.775 45.6093 104.071 45.6906 104.071 48.2339C104.071 50.936 99.5527 50.4229 98.9731 50.1498C98.2828 49.8249 97.6959 47.3628 97.5335 46.6429C96.5589 46.7242 96.8247 47.2926 96.6069 48.3631C96.4703 49.0313 96.1381 49.8951 96.1234 50.6998C98.113 51.6559 99.8295 51.582 101.952 51.582C104.027 51.582 106.899 49.932 106.899 47.3443C106.899 43.9741 104.569 43.3465 101.088 42.1985C97.4117 40.9914 97.6885 37.6248 102.306 37.6248C103.192 37.6248 103.096 37.7836 103.897 37.7983C104.119 38.7544 104.702 39.8544 104.78 40.7994H105.488C105.717 39.8286 106.024 37.6359 106.371 36.9087C103.831 36.3181 100.154 35.7902 97.9063 37.455C97.1127 38.0678 96.2968 38.9316 96.2968 40.2826Z" fill="white"/>
<path fill-rule="evenodd" clip-rule="evenodd" d="M111.845 33.0364L110.782 36.9272C109.767 36.9272 109.438 37.1007 108.309 37.1007C108.386 38.0309 109.409 38.1638 110.608 38.1638C110.608 41.3162 110.04 48.5698 110.948 50.1904C111.21 50.6592 111.354 50.7736 111.812 51.0985C113.92 52.5935 117.906 50.5521 118.737 50.3565V49.6477C112.956 49.6477 113.436 51.678 113.436 40.637C113.436 39.5591 113.61 39.3487 113.61 38.3373H118.202V36.9272H113.61V32.682C112.912 32.7411 112.55 32.981 111.845 33.0364Z" fill="white"/>
<path fill-rule="evenodd" clip-rule="evenodd" d="M74.7464 10.9544V11.6632C75.4736 11.7259 76.3485 12.0323 77.0462 12.191C77.0905 12.7448 77.2197 12.8149 77.2197 13.4277V24.2029C77.2197 26.2258 74.7907 24.5425 74.7464 26.5026H83.0484V25.7939C82.2289 25.6056 81.3946 25.2808 80.5752 25.0851C80.5752 24.0774 80.4017 23.8633 80.4017 22.7854V15.8972C80.4017 13.6085 80.5752 11.9843 80.5752 9.71411L74.7464 10.9544Z" fill="white"/>
<path fill-rule="evenodd" clip-rule="evenodd" d="M78.2791 8.83184C81.1104 8.83184 81.5903 4.76761 78.2791 4.76761C77.0388 4.76761 76.5774 5.6314 76.4666 6.85695C76.4186 7.3922 76.4076 7.67274 76.821 8.15632C77.1052 8.48485 77.718 8.83184 78.2791 8.83184Z" fill="white"/>
</svg>
