<svg width="219" height="41" viewBox="0 0 219 41" fill="none" xmlns="http://www.w3.org/2000/svg">
<g clip-path="url(#clip0_108_553)">
<path d="M23.4908 25.3318C29.5709 19.65 35.6321 13.9853 41.7347 8.28275H24.1867C24.245 8.21286 24.2656 8.17508 24.2976 8.15052C25.4504 7.28731 26.6033 6.42598 27.7598 5.56843C27.8351 5.51176 27.9441 5.47587 28.0382 5.47587C31.8107 5.47209 35.5832 5.47021 39.3539 5.47587C39.461 5.47587 39.5814 5.52876 39.6698 5.59298C40.3167 6.06709 40.9561 6.55442 41.605 7.02664C41.6971 7.09464 41.8306 7.13808 41.9453 7.13808C42.7916 7.14753 43.6398 7.14375 44.5575 7.14375C37.1084 14.1062 29.7025 21.0251 22.2891 27.9516C22.212 27.8855 22.1481 27.8308 22.086 27.7722C14.7798 20.9477 7.47359 14.1194 0.161746 7.29675C0.00565441 7.15131 0.0338637 6.99831 0.00941564 6.8302C-0.0375998 6.50909 0.0996854 6.32398 0.353569 6.13509C3.03533 4.14988 5.70393 2.14956 8.38193 0.158679C8.49101 0.0774569 8.65086 0.0207905 8.78627 0.0207905C16.5194 0.0151239 24.2525 0.0151239 31.9856 0.0207905C32.1154 0.0207905 32.2639 0.0717902 32.3692 0.147345C32.798 0.449566 33.2136 0.770675 33.6236 1.13145H33.3547C26.2196 1.13145 19.0827 1.13145 11.9476 1.12767C11.7558 1.12767 11.6072 1.17867 11.4549 1.29389C8.99313 3.13933 6.52764 4.97721 4.06215 6.81886C4.00009 6.86609 3.93803 6.9152 3.8534 6.98131C10.3998 13.0975 16.9369 19.208 23.4927 25.3337L23.4908 25.3318Z" fill="white"/>
<path d="M79.1741 40.915V35.9095H80.8121C81.2051 35.9095 81.5662 35.9737 81.8934 36.0983C82.2207 36.2249 82.5028 36.3987 82.7378 36.6197C82.9729 36.8407 83.1553 37.1051 83.2851 37.4092C83.4149 37.7133 83.4807 38.0439 83.4807 38.3971C83.4807 38.7503 83.413 39.1017 83.2776 39.4095C83.1422 39.7174 82.9579 39.9819 82.7228 40.2067C82.4877 40.4314 82.2132 40.6052 81.901 40.728C81.5888 40.8508 81.2522 40.915 80.8967 40.915H79.1741ZM79.821 40.5995H80.6033C80.9908 40.5995 81.3217 40.5334 81.5944 40.4031C81.8671 40.2728 82.0909 40.1028 82.2658 39.8912C82.4407 39.6815 82.5686 39.4454 82.6495 39.1867C82.7303 38.926 82.7698 38.6672 82.7698 38.4103C82.7698 38.1251 82.7209 37.8493 82.6269 37.5849C82.5329 37.3204 82.3937 37.0862 82.2113 36.8841C82.0289 36.682 81.8032 36.5196 81.5324 36.4025C81.2634 36.2835 80.9531 36.223 80.6015 36.223H79.8191V40.5995H79.821Z" fill="white"/>
<path d="M87.2626 35.9076V40.9131H86.6138V35.9076H87.2626Z" fill="white"/>
<path d="M91.3492 39.4398L90.7229 40.9131H90.3957L92.5039 35.9076H92.8593L95.18 40.9131H94.4898L93.8072 39.4398H91.3511H91.3492ZM92.5377 36.7084H92.5095L91.4846 39.1187H93.6567L92.5377 36.7084Z" fill="white"/>
<path d="M100.797 40.2067H100.826L103.133 35.9095H103.624V40.915H102.975V36.8596H102.947L100.698 41H100.57L98.3696 36.8312H98.3414V40.915H98.0292V35.9095H98.5125L100.799 40.2067H100.797Z" fill="white"/>
<path d="M106.767 37.5452C106.868 37.2411 107.028 36.9597 107.246 36.7047C107.464 36.4497 107.743 36.2381 108.079 36.0719C108.416 35.9057 108.82 35.8226 109.29 35.8226C109.76 35.8226 110.176 35.9076 110.526 36.0776C110.876 36.2457 111.163 36.4591 111.391 36.7179C111.619 36.9748 111.788 37.2562 111.897 37.5585C112.006 37.8607 112.06 38.1459 112.06 38.4122C112.06 38.5898 112.036 38.7749 111.987 38.9694C111.936 39.1659 111.863 39.3604 111.767 39.5531C111.669 39.7458 111.545 39.9309 111.393 40.1028C111.241 40.2765 111.062 40.4314 110.855 40.5637C110.648 40.6959 110.417 40.8035 110.157 40.881C109.898 40.9603 109.61 41 109.292 41C108.822 41 108.42 40.915 108.081 40.745C107.743 40.575 107.466 40.3634 107.248 40.1047C107.03 39.8478 106.87 39.5663 106.768 39.2641C106.665 38.9619 106.616 38.6767 106.616 38.4084C106.616 38.1402 106.667 37.8493 106.768 37.5433L106.767 37.5452ZM107.464 39.3302C107.566 39.6098 107.707 39.8497 107.884 40.0499C108.06 40.2501 108.273 40.4069 108.514 40.5183C108.756 40.6298 109.019 40.6864 109.303 40.6864C109.587 40.6864 109.849 40.6298 110.097 40.5183C110.345 40.4069 110.565 40.2501 110.752 40.0499C110.94 39.8497 111.086 39.6098 111.197 39.3302C111.306 39.0526 111.361 38.7447 111.361 38.4103C111.361 38.076 111.306 37.77 111.197 37.4905C111.088 37.2128 110.94 36.9729 110.752 36.7727C110.563 36.5725 110.345 36.4157 110.097 36.3042C109.849 36.1928 109.584 36.1361 109.303 36.1361C109.023 36.1361 108.756 36.1928 108.514 36.3042C108.271 36.4157 108.062 36.5725 107.884 36.7727C107.705 36.9729 107.566 37.2128 107.464 37.4905C107.363 37.77 107.312 38.076 107.312 38.4103C107.312 38.7447 107.363 39.0507 107.464 39.3302Z" fill="white"/>
<path d="M119.395 35.9076V41H119.359L115.408 37.0881H115.38V40.915H115.053V35.8226H115.088L119.039 39.7344H119.068V35.9095H119.395V35.9076Z" fill="white"/>
<path d="M122.953 40.915V35.9095H124.591C124.984 35.9095 125.345 35.9737 125.672 36.0983C126 36.2249 126.282 36.3987 126.517 36.6197C126.752 36.8407 126.934 37.1051 127.064 37.4092C127.194 37.7133 127.26 38.0439 127.26 38.3971C127.26 38.7503 127.192 39.1017 127.057 39.4095C126.921 39.7174 126.737 39.9819 126.502 40.2067C126.267 40.4314 125.992 40.6052 125.68 40.728C125.368 40.8508 125.031 40.915 124.676 40.915H122.953ZM123.602 40.5995H124.384C124.772 40.5995 125.103 40.5334 125.375 40.4031C125.648 40.2728 125.872 40.1028 126.047 39.8912C126.222 39.6815 126.349 39.4454 126.43 39.1867C126.511 38.926 126.551 38.6672 126.551 38.4103C126.551 38.1251 126.502 37.8493 126.408 37.5849C126.314 37.3204 126.175 37.0862 125.992 36.8841C125.81 36.682 125.584 36.5196 125.313 36.4025C125.044 36.2835 124.734 36.223 124.382 36.223H123.6V40.5995H123.602Z" fill="white"/>
<path d="M136.39 35.9076V39.4983C136.39 39.6513 136.377 39.8156 136.354 39.9913C136.33 40.1689 136.273 40.3313 136.179 40.4805C136.087 40.6316 135.946 40.7544 135.756 40.8526C135.566 40.9509 135.307 41 134.98 41C134.524 41 134.182 40.8999 133.955 40.6996C133.727 40.4994 133.609 40.2161 133.599 39.8478H134.225C134.225 39.9233 134.239 40.0102 134.265 40.1084C134.291 40.2066 134.333 40.2973 134.393 40.3842C134.453 40.4711 134.532 40.541 134.634 40.5995C134.735 40.6562 134.865 40.6845 135.021 40.6845C135.2 40.6845 135.339 40.6449 135.437 40.5655C135.532 40.4862 135.606 40.3899 135.653 40.2728C135.7 40.1556 135.726 40.0291 135.734 39.8931C135.739 39.7571 135.745 39.6324 135.745 39.5172V35.9057H136.394L136.39 35.9076Z" fill="white"/>
<path d="M143.096 35.9076V36.3004H140.526V38.0949H142.733V38.4235H140.526V40.5183H143.096V40.9112H139.879V35.9057H143.096V35.9076Z" fill="white"/>
<path d="M145.959 35.9076L147.426 40.0631H147.454L148.872 35.9076H149.178L150.566 40.0839H150.594L152.069 35.9076H152.396L150.63 40.9131H150.209L148.892 37.0012H148.857L147.497 40.9131H147.07L145.304 35.9076H145.959Z" fill="white"/>
<path d="M158.461 35.9076V36.3004H155.89V38.0949H158.098V38.4235H155.89V40.5183H158.461V40.9112H155.243V35.9057H158.461V35.9076Z" fill="white"/>
<path d="M161.31 40.915V35.9095H161.959V40.5221H164.53V40.915H161.312H161.31Z" fill="white"/>
<path d="M167.375 40.915V35.9095H168.024V40.5221H170.595V40.915H167.377H167.375Z" fill="white"/>
<path d="M176.66 35.9076V36.3004H174.089V38.0949H176.297V38.4235H174.089V40.5183H176.66V40.9112H173.442V35.9057H176.66V35.9076Z" fill="white"/>
<path d="M181.124 35.9076C181.442 35.9076 181.705 35.951 181.914 36.0398C182.123 36.1267 182.288 36.2381 182.409 36.3684C182.529 36.4988 182.616 36.6404 182.665 36.7934C182.715 36.9464 182.74 37.0862 182.74 37.2147C182.74 37.3582 182.715 37.5037 182.668 37.6548C182.621 37.804 182.546 37.9438 182.443 38.0722C182.339 38.2007 182.206 38.3083 182.044 38.3952C181.88 38.4802 181.687 38.5312 181.457 38.5444V38.5728L181.529 38.6087C181.585 38.637 181.634 38.6729 181.675 38.7163C181.717 38.7598 181.767 38.8278 181.833 38.9241C181.897 39.0204 181.984 39.1545 182.091 39.3283C182.2 39.5021 182.352 39.7344 182.55 40.0253C182.616 40.1254 182.68 40.2142 182.74 40.2935C182.802 40.3729 182.866 40.439 182.932 40.4938C182.997 40.5485 183.069 40.5901 183.146 40.6184C183.223 40.6468 183.31 40.6619 183.409 40.6619C183.434 40.6619 183.456 40.6619 183.481 40.6581C183.505 40.6562 183.528 40.6524 183.552 40.6468V40.9112C183.484 40.949 183.419 40.9735 183.353 40.983C183.287 40.9924 183.201 40.9981 183.097 40.9981C182.956 40.9981 182.832 40.9792 182.732 40.9414C182.631 40.9036 182.54 40.8526 182.46 40.7884C182.379 40.7242 182.305 40.6468 182.238 40.5561C182.17 40.4654 182.1 40.3653 182.031 40.2558L181.467 39.419C181.38 39.2849 181.307 39.1734 181.245 39.0828C181.183 38.9921 181.117 38.9184 181.045 38.8618C180.974 38.8051 180.895 38.7635 180.806 38.7409C180.718 38.7182 180.607 38.705 180.474 38.705H180.16V40.915H179.511V35.9095H181.126L181.124 35.9076ZM180.156 38.382H180.891C181.081 38.382 181.248 38.3499 181.395 38.2819C181.54 38.2158 181.664 38.1289 181.764 38.0212C181.863 37.9135 181.939 37.7945 181.989 37.6642C182.04 37.5339 182.065 37.4036 182.065 37.2751C182.065 37.1221 182.036 36.9823 181.982 36.8539C181.927 36.7254 181.846 36.614 181.741 36.5214C181.636 36.4289 181.512 36.3552 181.365 36.3042C181.22 36.2513 181.057 36.2249 180.876 36.2249H180.154V38.3839L180.156 38.382Z" fill="white"/>
<path d="M185.924 35.9076L187.376 38.5463H187.404L188.927 35.9076H189.311L187.56 38.9543V40.9131H186.911V39.0185L185.188 35.9076H185.922H185.924Z" fill="white"/>
<path d="M80.7971 0.438232H86.2095C86.0515 1.09367 85.7995 1.73211 85.7544 2.38756C85.5776 4.93754 85.4008 7.48942 85.3444 10.0432C85.2748 13.2599 85.2993 16.4786 85.3312 19.6972C85.35 21.656 85.9011 23.4297 87.3792 24.8199C88.406 25.7851 89.6623 26.2535 91.0088 26.5029C92.7785 26.8315 94.5481 26.8353 96.299 26.3536C99.2441 25.5452 100.986 23.4618 101.239 20.4093C101.309 19.5745 101.352 18.732 101.347 17.8953C101.324 14.1779 101.307 10.4587 101.234 6.74142C101.202 5.17176 101.059 3.6021 100.914 2.03622C100.865 1.51489 100.655 1.00867 100.508 0.45901H106.011C105.202 2.20056 105.26 4.0611 105.219 5.88198C105.121 10.2245 105.123 14.5689 105.089 18.9115C105.078 20.4585 104.963 21.9941 104.267 23.4032C103.278 25.4092 101.653 26.7239 99.5261 27.2679C95.2571 28.3559 90.958 28.388 86.7285 27.0714C83.3942 26.0344 81.6189 23.5109 81.5926 19.9995C81.5681 16.5485 81.6358 13.0975 81.5681 9.64841C81.5173 7.06064 81.3293 4.47288 81.1675 1.887C81.1375 1.41856 80.9381 0.961452 80.8008 0.438232H80.7971Z" fill="white"/>
<path d="M73.5247 0.145446C73.6131 1.25988 73.6921 2.28743 73.7748 3.32443C73.7146 3.32443 73.6657 3.33954 73.6488 3.32254C72.59 2.28743 71.2698 1.88699 69.8481 1.68866C67.2641 1.32788 64.6801 1.09744 62.0962 1.63199C57.3401 2.6161 54.2013 5.83664 53.2911 10.6268C52.5351 14.6067 53.1576 18.3032 55.7491 21.4879C58.7186 25.1353 62.6002 26.6256 67.2585 26.0495C68.0521 25.9513 68.8401 25.8078 69.6356 25.7095C69.9026 25.6774 70.0361 25.5962 70.0926 25.311C70.4781 23.3805 70.5101 21.4388 70.2336 19.4989C70.0926 18.5053 69.5453 18.0766 68.4602 17.9689C67.5932 17.882 66.7206 17.848 65.8536 17.7517C65.6449 17.729 65.4512 17.5534 65.25 17.4495C65.2725 17.3909 65.297 17.3342 65.3195 17.2757H75.1815C73.9892 19.6689 74.3164 22.2793 74.1491 24.8161C74.1171 25.2978 73.9967 25.5169 73.5379 25.6925C71.2924 26.5557 69.0262 27.3472 66.6303 27.6589C62.918 28.1424 59.2677 28.0007 55.8525 26.2384C51.4349 23.9567 49.1105 20.2261 48.8002 15.3188C48.4899 10.4266 50.1317 6.23897 53.9531 3.07699C56.7477 0.772554 60.0519 -0.0736638 63.6138 0.00566915C66.3351 0.0661133 69.0563 0.168113 71.7776 0.234223C72.3418 0.247446 72.9078 0.179446 73.5247 0.145446Z" fill="white"/>
<path d="M112.339 0.464654C112.476 0.443876 112.576 0.415543 112.675 0.415543C114.402 0.413654 116.13 0.40421 117.857 0.426876C118.048 0.428765 118.295 0.570431 118.417 0.725319C123.619 7.32128 129.388 13.411 135.051 19.5971C135.493 20.0788 135.944 20.551 136.392 21.027C136.446 20.9968 136.501 20.9665 136.554 20.9344C136.601 20.1562 136.693 19.378 136.689 18.5998C136.67 13.7907 136.655 8.97972 136.582 4.17252C136.563 2.93342 136.535 1.65843 135.85 0.464654H138.673C137.836 2.99575 137.994 5.62885 137.981 8.23739C137.951 14.7654 137.972 21.2914 137.972 27.8194C137.972 28.0272 137.972 28.2331 137.972 28.4616C134.429 24.4119 130.963 20.3791 127.418 16.4162C123.869 12.4496 120.482 8.32239 116.418 4.62019C116.339 5.97262 116.213 7.17584 116.207 8.38094C116.181 12.7801 116.179 17.1793 116.205 21.5785C116.213 22.9178 116.297 24.2607 116.44 25.5905C116.516 26.2951 116.796 26.9788 116.986 27.6853H114.112C115.021 25.94 114.855 24.0133 114.879 22.1471C114.949 16.8903 114.917 11.6336 114.904 6.37495C114.902 5.46452 114.776 4.55596 114.748 3.64552C114.735 3.23186 114.554 2.96553 114.276 2.68598C113.661 2.0702 113.085 1.41854 112.499 0.77443C112.431 0.700764 112.403 0.591209 112.339 0.460876V0.464654Z" fill="white"/>
<path d="M168.199 27.7193H162.384C162.984 26.7069 162.606 25.7492 162.35 24.7915C161.861 22.9593 161.209 21.1894 160.334 19.5027C160.184 19.2099 160.011 19.0966 159.678 19.0966C156.084 19.1079 152.488 19.1041 148.894 19.1022C148.637 19.1022 148.428 19.0985 148.313 19.4215C147.6 21.4388 146.859 23.4448 146.143 25.4621C145.882 26.1987 145.748 26.9505 146.265 27.7136H143.343C143.375 27.6192 143.386 27.5512 143.418 27.4945C145.468 23.9793 146.775 20.1354 148.259 16.3728C150.327 11.1312 152.379 5.88386 154.421 0.630889C154.57 0.249335 154.751 0.12278 155.151 0.134114C156.097 0.162447 156.095 0.141669 156.468 1.02944C159.351 7.90307 162.205 14.7899 165.137 21.6409C165.95 23.5392 166.991 25.3374 167.926 27.181C168.005 27.3377 168.084 27.4926 168.199 27.7212V27.7193ZM154.196 5.49664C154.119 5.48342 154.042 5.46831 153.964 5.45508C152.276 9.56151 150.587 13.666 148.857 17.8745C152.528 18.1786 156.041 18.2031 159.631 17.8594C158.042 13.5603 156.249 9.47084 154.196 5.49664Z" fill="white"/>
<path d="M198.223 27.7136H192.414C192.989 26.6729 192.69 25.6755 192.352 24.7217C191.733 22.9763 191.03 21.2631 190.369 19.5329C190.243 19.2024 190.038 19.0947 189.681 19.0947C186.102 19.1079 182.525 19.1041 178.947 19.1004C178.67 19.1004 178.448 19.0947 178.326 19.4422C177.63 21.4275 176.9 23.4032 176.197 25.3865C175.93 26.1383 175.742 26.9033 176.295 27.7004H173.395C173.399 27.6608 173.386 27.6003 173.408 27.5606C175.56 23.8528 176.923 19.7992 178.49 15.8383C180.485 10.795 182.458 5.74409 184.423 0.689456C184.581 0.281458 184.761 0.107681 185.218 0.128459C186.123 0.168125 186.121 0.139792 186.469 0.967121C189.39 7.92575 192.282 14.8938 195.25 21.8317C196.026 23.6488 197.029 25.3677 197.928 27.1319C198.016 27.3038 198.103 27.4756 198.223 27.7136ZM184.212 5.49099C184.135 5.48154 184.06 5.4721 183.983 5.46265C182.296 9.56719 180.609 13.6698 178.881 17.8726C182.555 18.1842 186.063 18.2013 189.655 17.8613C188.068 13.5792 186.281 9.47274 184.212 5.49099Z" fill="white"/>
<path d="M203.248 27.7401C203.15 26.7446 203.056 25.787 202.953 24.7235C203.261 24.9124 203.506 25.0654 203.754 25.2146C206.099 26.6294 208.617 27.2811 211.314 26.6351C213.578 26.093 215.068 24.6442 215.474 22.2699C215.733 20.7569 215.301 19.4101 214.15 18.3901C213.151 17.5061 212.079 16.7034 211.021 15.8892C209.369 14.618 207.645 13.4375 206.063 12.0888C204.752 10.9706 203.848 9.52561 203.677 7.73118C203.436 5.20197 204.391 3.19598 206.368 1.66221C207.803 0.54966 209.478 0.115217 211.257 0.0698844C212.074 0.0491067 212.892 0.137884 213.71 0.145439C215.145 0.158662 216.582 0.149217 218.09 0.149217V2.9372C217.321 2.57643 216.527 2.15143 215.696 1.82276C213.975 1.14088 212.202 0.849991 210.372 1.34866C208.301 1.91154 206.964 3.36598 206.733 5.29641C206.595 6.44863 206.894 7.50262 207.701 8.30351C208.568 9.16483 209.512 9.96572 210.5 10.6854C212.282 11.9868 214.163 13.156 215.929 14.4783C217.417 15.5927 218.49 17.0585 218.863 18.9417C219.615 22.7421 217.264 26.484 213.403 27.4832C212.23 27.7873 210.983 27.8628 209.764 27.9082C208.685 27.9478 207.6 27.7778 206.515 27.7457C205.45 27.7136 204.386 27.7382 203.252 27.7382L203.248 27.7401Z" fill="white"/>
</g>
<defs>
<clipPath id="clip0_108_553">
<rect width="219" height="41" fill="white"/>
</clipPath>
</defs>
</svg>
