<svg width="254" height="40" viewBox="0 0 254 40" fill="none" xmlns="http://www.w3.org/2000/svg">
<g clip-path="url(#clip0_108_626)">
<path d="M191.67 35.4815H191.857V35.4028C191.857 34.6898 191.459 34.4491 190.916 34.4491C190.253 34.4491 189.719 34.8704 189.719 34.8704L189.376 34.2593C189.376 34.2593 189.997 33.7454 190.98 33.7454C192.067 33.7454 192.679 34.3472 192.679 35.4491V38.2037H191.916V37.7917C191.916 37.5926 191.934 37.4491 191.934 37.4491H191.916C191.916 37.4491 191.569 38.3102 190.541 38.3102C189.801 38.3102 189.079 37.8518 189.079 36.9861C189.079 35.5417 190.948 35.4815 191.67 35.4815ZM190.719 37.6296C191.414 37.6296 191.866 36.8889 191.866 36.2454V36.1065H191.651C191.03 36.1065 189.911 36.1481 189.911 36.9352C189.911 37.287 190.185 37.6296 190.719 37.6296Z" fill="white"/>
<path d="M199.075 32.0185C200.518 32.0185 201.258 32.8194 201.258 32.8194L200.843 33.4583C200.843 33.4583 200.148 32.7963 199.111 32.7963C197.768 32.7963 196.896 33.8287 196.896 35.1204C196.896 36.412 197.787 37.5232 199.12 37.5232C200.249 37.5232 200.971 36.7315 200.971 36.7315L201.423 37.3426C201.423 37.3426 200.601 38.3056 199.098 38.3056C197.298 38.3056 196.032 36.912 196.032 35.1296C196.023 33.3611 197.334 32.0185 199.075 32.0185Z" fill="white"/>
<path d="M202.647 32.125H203.488V34.7917H206.594V32.125H207.435V38.2037H206.594V35.537H203.488V38.2037H202.647V32.125Z" fill="white"/>
<path d="M211.788 32.0185C213.232 32.0185 213.972 32.8194 213.972 32.8194L213.556 33.4583C213.556 33.4583 212.862 32.7963 211.825 32.7963C210.482 32.7963 209.609 33.8287 209.609 35.1204C209.609 36.412 210.5 37.5232 211.834 37.5232C212.963 37.5232 213.684 36.7315 213.684 36.7315L214.137 37.3426C214.137 37.3426 213.314 38.3056 211.811 38.3056C210.011 38.3056 208.746 36.912 208.746 35.1296C208.746 33.3611 210.048 32.0185 211.788 32.0185Z" fill="white"/>
<path d="M219.454 33.7408C220.532 33.7408 221.067 34.3796 221.067 34.3796L220.674 34.963C220.674 34.963 220.217 34.463 219.486 34.463C218.618 34.463 217.992 35.1158 217.992 36.0139C217.992 36.9121 218.623 37.5787 219.514 37.5787C220.313 37.5787 220.838 36.9954 220.838 36.9954L221.167 37.6065C221.167 37.6065 220.573 38.3056 219.45 38.3056C218.097 38.3056 217.147 37.3333 217.147 36.0232C217.156 34.7315 218.107 33.7408 219.454 33.7408Z" fill="white"/>
<path d="M224.192 33.7408C225.475 33.7408 226.512 34.6945 226.512 36.0139C226.512 37.3333 225.475 38.3056 224.192 38.3056C222.908 38.3056 221.871 37.3426 221.871 36.0139C221.871 34.6991 222.912 33.7408 224.192 33.7408ZM224.192 37.5787C225.005 37.5787 225.667 36.9259 225.667 36.0139C225.667 35.1019 225.005 34.463 224.192 34.463C223.378 34.463 222.716 35.1111 222.716 36.0139C222.716 36.9167 223.388 37.5787 224.192 37.5787Z" fill="white"/>
<path d="M227.572 33.8426H228.372V34.4213C228.372 34.5926 228.353 34.7408 228.353 34.7408H228.372C228.577 34.2315 229.18 33.7408 229.847 33.7408C230.569 33.7408 230.994 34.0741 231.14 34.7315H231.158C231.396 34.2083 231.99 33.7408 232.689 33.7408C233.657 33.7408 234.105 34.3009 234.105 35.412V38.1991H233.283V35.5926C233.283 34.9815 233.164 34.5 232.52 34.5C231.917 34.5 231.469 35.0139 231.314 35.6111C231.272 35.7917 231.254 35.9908 231.254 36.213V38.1991H230.432V35.5926C230.432 35.0232 230.345 34.5 229.683 34.5C229.02 34.5 228.614 35.0232 228.449 35.6435C228.408 35.8148 228.399 36.0139 228.399 36.213V38.1991H227.577V33.8426H227.572Z" fill="white"/>
<path d="M235.416 33.8426H236.17V34.213C236.17 34.3843 236.151 34.5324 236.151 34.5324H236.17C236.17 34.5324 236.535 33.7408 237.613 33.7408C238.769 33.7408 239.5 34.6713 239.5 36.0232C239.5 37.375 238.678 38.3056 237.554 38.3056C236.613 38.3056 236.238 37.5926 236.238 37.5926H236.22C236.22 37.5926 236.238 37.7454 236.238 37.9722V39.9259H235.416V33.8426ZM237.426 37.588C238.107 37.588 238.664 37.0185 238.664 36.0324C238.664 35.0463 238.162 34.4722 237.449 34.4722C236.805 34.4722 236.211 34.9306 236.211 36.037C236.215 36.8148 236.64 37.588 237.426 37.588Z" fill="white"/>
<path d="M242.835 35.4815H243.022V35.4028C243.022 34.6898 242.625 34.4491 242.081 34.4491C241.419 34.4491 240.884 34.8704 240.884 34.8704L240.542 34.2593C240.542 34.2593 241.163 33.7454 242.145 33.7454C243.232 33.7454 243.845 34.3472 243.845 35.4491V38.2037H243.082V37.7917C243.082 37.5926 243.1 37.4491 243.1 37.4491H243.082C243.082 37.4491 242.734 38.3102 241.707 38.3102C240.967 38.3102 240.245 37.8518 240.245 36.9861C240.245 35.5417 242.113 35.4815 242.835 35.4815ZM241.885 37.6296C242.579 37.6296 243.031 36.8889 243.031 36.2454V36.1065H242.817C242.195 36.1065 241.076 36.1481 241.076 36.9352C241.076 37.287 241.35 37.6296 241.885 37.6296Z" fill="white"/>
<path d="M245.16 33.8426H245.96V34.4213C245.96 34.5926 245.941 34.7408 245.941 34.7408H245.96C246.129 34.3611 246.64 33.7408 247.572 33.7408C248.582 33.7408 249.048 34.3009 249.048 35.412V38.1991H248.226V35.6019C248.226 34.9908 248.098 34.5093 247.408 34.5093C246.755 34.5093 246.229 34.9491 246.051 35.5787C246.001 35.75 245.983 35.9491 245.983 36.1621V38.2037H245.16V33.8426Z" fill="white"/>
<path d="M250.048 39.1018C250.048 39.1018 250.286 39.2824 250.551 39.2824C250.884 39.2824 251.163 39.0417 251.323 38.6435L251.538 38.1435L249.738 33.838H250.665L251.743 36.6852C251.83 36.9074 251.903 37.2083 251.903 37.2083H251.921C251.921 37.2083 251.99 36.9167 252.068 36.6944L253.114 33.838H254L251.985 38.9768C251.72 39.6481 251.195 40 250.592 40C250.108 40 249.761 39.7315 249.761 39.7315L250.048 39.1018Z" fill="white"/>
<path d="M0.0228417 0H0V27.6065C0 29.9444 1.87759 31.8472 4.1846 31.8472H4.20745V4.24074C4.20745 1.90278 2.32986 0 0.0228417 0Z" fill="white"/>
<path d="M16.2633 27.6065C16.2633 29.9444 18.1409 31.8472 20.4479 31.8472H20.4708V18.8287H16.2633V27.6065Z" fill="white"/>
<path d="M48.9087 26.463C48.6529 25.875 48.5387 25.2546 48.4382 24.6713C48.4382 24.6713 48.1717 23.0772 47.6387 19.8889L45.9576 10.287L45.7703 9.20834C45.7063 8.8426 45.6423 8.46297 45.5144 8.10186C45.4413 7.89353 45.3545 7.68519 45.2586 7.49075C44.4089 5.78241 42.6912 4.72223 40.7771 4.72223H40.6857C39.6669 4.74075 38.6985 5.05093 37.8853 5.62038L37.8442 5.64815L37.8944 5.66204C39.3563 6.06482 40.5578 7.0926 41.1973 8.48149C41.2704 8.6389 41.3344 8.80093 41.3938 8.9676C41.5217 9.33797 41.5902 9.71297 41.6633 10.1343L43.4998 20.6111L44.3678 25.8195C44.4591 26.3611 44.5779 26.9398 44.8566 27.5093C45.7017 29.2546 47.424 30.3287 49.3655 30.3287H49.4569C50.5213 30.3102 51.5264 29.9722 52.3624 29.3472L52.4035 29.3148L52.3532 29.3056C50.8228 28.9722 49.5391 27.9074 48.9087 26.463Z" fill="white"/>
<path d="M57.0129 13.7917C54.3405 13.7917 51.9969 15.7176 51.4396 18.3658L51.3299 19.0046L51.3802 18.9583C52.0517 18.3704 52.906 18.0463 53.7923 18.0463H62.3442C64.6512 18.0463 66.5288 16.1435 66.5288 13.8102V13.787H57.0129V13.7917Z" fill="white"/>
<path d="M29.1049 18.7037L29.1506 18.7361L29.1004 18.463C28.5841 15.7546 26.2314 13.7917 23.5087 13.7917H5.2262V13.8148C5.2262 16.1528 7.10379 18.0509 9.4108 18.0509H19.3058L24.4224 18.0602H26.9715C27.7299 18.0648 28.4654 18.287 29.1049 18.7037Z" fill="white"/>
<path d="M31.3434 28.5324C31.0236 27.9398 30.7861 27.2546 30.6536 26.5555L29.5115 20.5972C29.4156 20.1018 29.1597 19.6852 28.7943 19.4213C28.2598 19.0417 27.6293 18.838 26.9761 18.838H24.8152L24.8335 18.875C24.9066 19.0139 24.9523 19.1481 24.9797 19.2778L26.6426 27.963L26.6563 28.0324C27.1816 30.3657 29.1232 31.9583 31.485 32H31.5764C32.4901 32 33.3809 31.7546 34.1529 31.2963L34.1895 31.2731L34.1484 31.2546C32.9423 30.6528 31.9738 29.713 31.3434 28.5324Z" fill="white"/>
<path d="M20.4708 4.24074C20.4708 3.10648 20.0368 2.04167 19.2464 1.24074C18.4515 0.439815 17.4054 0 16.2861 0H16.2633V13.0185H20.4708V4.24074Z" fill="white"/>
<path d="M55.0075 18.8056C54.2674 18.7824 53.509 18.7593 52.8238 19.0093C52.7096 19.0509 52.5999 19.0972 52.4994 19.1482C51.8462 19.463 51.3573 19.963 51.1198 20.5463C50.9736 20.9074 50.9188 21.2963 50.864 21.6759L50.8548 21.7454C50.6949 22.8519 50.4802 23.963 50.2701 25.037C50.229 25.25 50.1878 25.4722 50.0828 25.662C49.9686 25.8704 49.7904 26.0139 49.6031 26.0417H49.5711L49.5848 26.0741C50.0325 27.162 50.9599 28.037 52.0563 28.4213C52.2939 28.5046 52.5086 28.5463 52.6959 28.5463C52.8375 28.5463 52.97 28.5232 53.0887 28.4722C53.4679 28.3148 53.6872 27.9259 53.8334 27.6065C54.3085 26.5787 54.5004 25.4444 54.6877 24.3519C54.9115 23.037 55.1354 21.7176 55.3592 20.4028C55.446 19.8843 55.5374 19.3519 55.7018 18.8472L55.711 18.8148H55.679C55.4597 18.8194 55.2313 18.8148 55.0075 18.8056Z" fill="white"/>
<path d="M39.1644 7.14815C38.9132 6.95833 38.6436 6.79167 38.3604 6.66204C38.2645 6.61574 38.1868 6.58333 38.1137 6.55555C37.7939 6.43518 37.5381 6.40741 37.3005 6.46759C37.2229 6.48611 37.1452 6.51852 37.0721 6.56018C36.7615 6.73148 36.4828 7.07407 36.2315 7.61111C35.9757 8.15741 35.8478 8.75 35.7427 9.31018L32.3622 27.1574C32.2754 27.4398 32.0972 27.6157 31.8277 27.6898L31.8002 27.6991L31.8094 27.7268C32.1292 28.4676 32.6134 29.1435 33.2119 29.6852C33.3946 29.8518 33.5545 29.9815 33.7007 30.0972C33.9565 30.2917 34.3448 30.5509 34.7651 30.5648H34.7971C35.2539 30.5648 35.56 30.213 35.7747 29.9074C36.1584 29.3518 36.3092 28.6759 36.4508 28.0231C36.4737 27.9213 36.4965 27.8194 36.5193 27.7176C36.6199 27.2824 36.6975 26.875 36.798 26.3611L39.973 9.62037C40.0552 9.28704 40.2563 9.08333 40.5623 9.01389H40.5897L40.5806 8.98148C40.27 8.25463 39.7811 7.62037 39.1644 7.14815Z" fill="white"/>
<path d="M123.724 10.7685C120.115 10.7685 117.758 12.6713 117.758 12.6713L119.193 15.4213C119.193 15.4213 121.194 13.9398 123.368 13.9398C125.04 13.9398 126.292 14.6343 126.292 16.662V16.875H125.785C123.309 16.875 116.771 17.2083 116.771 22.1065C116.771 25.1898 119.22 26.9167 121.934 26.9167C125.397 26.9167 126.557 24.1945 126.557 24.1945V26.5556H130.047V16.9074C130.047 13.0046 127.726 10.7685 123.724 10.7685ZM126.324 19.8704C126.324 21.7454 124.889 23.9213 122.893 23.9213C121.34 23.9213 120.595 22.9537 120.595 21.9259C120.595 19.7778 123.729 19.5046 125.666 19.5046H126.324V19.8704ZM139.092 23.287C139.389 23.287 139.659 23.2546 139.659 23.2546V26.6111C139.659 26.6111 139.092 26.7037 138.467 26.7037C136.379 26.7037 133.779 26.1574 133.779 21.7454V5.08334H137.539V21.1713C137.539 22.8611 138.106 23.287 139.092 23.287ZM79.3613 5.08334H83.2124V26.5556H79.3613V5.08334ZM108.183 10.7685C103.647 10.7685 100.453 14.0926 100.453 18.8426C100.453 23.2269 103.587 26.9167 108.631 26.9167C112.422 26.9167 114.748 24.7083 114.748 24.7083L113.286 21.9583C113.286 21.9583 111.344 23.6528 108.9 23.6528C106.634 23.6528 104.574 22.2593 104.336 19.5695H114.839C114.839 19.5695 114.93 18.5417 114.93 18.088C114.93 14.0046 112.569 10.7685 108.183 10.7685ZM104.451 16.9352C104.807 14.9398 106.15 13.7315 108.092 13.7315C109.764 13.7315 111.047 14.8519 111.107 16.9352H104.451ZM92.9064 5.08334H96.7576V26.5556H92.9064V17.5417H87.4884C85.661 17.5417 84.1763 16.0417 84.1763 14.1852H89.1604H90.0101L92.9019 14.1806V5.08334H92.9064ZM167.946 16.6343V26.5509H164.186V17.4213C164.186 15.5463 163.707 14.2778 161.77 14.2778C159.833 14.2778 158.22 15.6065 157.654 17.4815C157.475 18.088 157.416 18.75 157.416 19.4769V26.5509H153.629V5.08334H157.416V12.5232C157.416 13.2778 157.357 13.8241 157.357 13.8241H157.416C158.161 12.3426 160.011 10.7685 162.67 10.7685C166.037 10.7685 167.946 12.5509 167.946 16.6343ZM219.628 23.3148C220.043 23.3148 220.313 23.2546 220.313 23.2546V26.6111C220.313 26.6111 219.865 26.7037 219.148 26.7037C217.028 26.7037 212.821 26.0695 212.821 20.8982V14.4259H210.852V11.3704H212.912V6.92594H216.613V11.3704H220.075V14.4259H216.613V20.412C216.613 22.9537 218.582 23.3148 219.628 23.3148ZM235.379 21.6852L236.841 24.4074C236.841 24.4074 234.662 26.9167 230.574 26.9167C225.53 26.9167 222.309 23.3195 222.309 18.8426C222.309 14.3658 225.53 10.7685 230.574 10.7685C234.543 10.7685 236.421 13.0648 236.421 13.0648L234.749 15.6945C234.749 15.6945 233.168 14.0324 230.779 14.0324C227.974 14.0324 226.156 16.1806 226.156 18.8102C226.156 21.4398 228.006 23.6482 230.902 23.6482C233.47 23.6482 235.379 21.6852 235.379 21.6852ZM254 16.6343V26.5509H250.24V17.4213C250.24 15.5463 249.761 14.2778 247.824 14.2778C245.887 14.2778 244.274 15.6065 243.708 17.4815C243.529 18.088 243.47 18.75 243.47 19.4769V26.5509H239.683V5.08334H243.47V12.5232C243.47 13.2778 243.411 13.8241 243.411 13.8241H243.47C244.215 12.3426 246.065 10.7685 248.724 10.7685C252.09 10.7685 254 12.5509 254 16.6343ZM201.989 10.7685C198.38 10.7685 196.023 12.6713 196.023 12.6713L197.458 15.4213C197.458 15.4213 199.459 13.9398 201.633 13.9398C203.305 13.9398 204.557 14.6343 204.557 16.662V16.875H204.05C201.574 16.875 195.036 17.2083 195.036 22.1065C195.036 25.1898 197.485 26.9167 200.199 26.9167C203.661 26.9167 204.822 24.1945 204.822 24.1945V26.5556H208.317V16.9074C208.317 13.0046 205.991 10.7685 201.989 10.7685ZM204.589 19.8704C204.589 21.7454 203.154 23.9213 201.158 23.9213C199.605 23.9213 198.86 22.9537 198.86 21.9259C198.86 19.7778 201.994 19.5046 203.931 19.5046H204.589V19.8704ZM192.77 11.1296H193.817L189.193 26.5509H184.986L182.419 17.75C182.181 16.9352 182.03 16.088 182.03 16.088H181.971C181.971 16.088 181.852 16.9352 181.615 17.75L179.047 26.5509H174.808L170.153 11.1296H174.15L176.804 21.2593C177.014 22.0741 177.101 22.8935 177.101 22.8935H177.16C177.16 22.8935 177.311 22.0787 177.517 21.2593L180.322 11.1574H183.693L186.498 21.2593C186.708 22.0741 186.827 22.8935 186.827 22.8935H186.886C186.886 22.8935 187.005 22.0787 187.215 21.2593L189.129 13.963C189.573 12.2917 191.066 11.1296 192.77 11.1296ZM149.833 23.3148C150.248 23.3148 150.518 23.2546 150.518 23.2546V26.6111C150.518 26.6111 150.07 26.7037 149.353 26.7037C147.233 26.7037 143.026 26.0695 143.026 20.8982V14.4259H141.057V11.3704H143.117V6.92594H146.817V11.3704H150.28V14.4259H146.817V20.412C146.817 22.9537 148.791 23.3148 149.833 23.3148Z" fill="white"/>
</g>
<defs>
<clipPath id="clip0_108_626">
<rect width="254" height="40" fill="white"/>
</clipPath>
</defs>
</svg>
