<svg width="243" height="64" viewBox="0 0 243 64" fill="none" xmlns="http://www.w3.org/2000/svg">
<g style="mix-blend-mode:multiply">
<path fill-rule="evenodd" clip-rule="evenodd" d="M115.91 34.7862V26.18H100.418V34.7862H96.8411V15.8507H100.418V23.3826H115.91V15.8507H119.487V34.7862H115.91ZM123.117 34.7862V15.8507H126.695V34.7862H123.117ZM155.851 34.7862V21.526L146.221 34.7862H143.291L133.635 21.5537V34.7862H130.327V15.8507H133.663L144.906 31.3171L156.095 15.8507H159.162V34.7862H155.854H155.851ZM162.79 34.7862V15.8507H166.367V34.7862H162.79ZM178.794 34.7862V18.6481H168.87V15.8507H192.027V18.6481H182.372V34.7862H178.794ZM193.909 34.7862V31.9887H210.369C211.946 31.9887 212.736 31.4051 212.736 30.2403V27.8454C212.736 26.6807 211.946 26.097 210.369 26.097H199.234C198.158 26.097 197.244 25.9838 196.49 25.7599C195.737 25.536 195.124 25.2216 194.648 24.8191C194.173 24.4165 193.828 23.9361 193.612 23.3801C193.395 22.8241 193.29 22.2053 193.29 21.5235V20.4216C193.29 19.7399 193.398 19.121 193.612 18.5651C193.828 18.0091 194.173 17.5286 194.648 17.1261C195.124 16.7236 195.737 16.4091 196.49 16.1852C197.242 15.9614 198.158 15.8481 199.234 15.8481H215.264V18.6456H199.234C197.657 18.6456 196.867 19.2292 196.867 20.394V21.5512C196.867 22.7159 197.657 23.2996 199.234 23.2996H210.369C211.445 23.2996 212.359 23.4128 213.113 23.6367C213.865 23.8606 214.479 24.175 214.955 24.5775C215.43 24.9801 215.775 25.4606 215.991 26.0165C216.208 26.5725 216.313 27.1913 216.313 27.8731V30.2127C216.313 30.8944 216.205 31.5133 215.991 32.0692C215.775 32.6252 215.43 33.1057 214.955 33.5082C214.479 33.9107 213.865 34.2252 213.113 34.4491C212.361 34.673 211.445 34.7862 210.369 34.7862H193.909ZM225.11 34.7862C224.034 34.7862 223.121 34.673 222.366 34.4491C221.614 34.2252 221 33.9107 220.524 33.5082C220.049 33.1057 219.704 32.6252 219.488 32.0692C219.272 31.5133 219.166 30.8944 219.166 30.2127V15.8507H222.743V30.2403C222.743 31.4051 223.533 31.9887 225.11 31.9887H236.864C238.441 31.9887 239.231 31.4051 239.231 30.2403V15.8507H242.808V30.2127C242.808 30.8944 242.74 31.5133 242.607 32.0692C242.474 32.6252 242.212 33.1057 241.827 33.5082C241.442 33.9107 240.911 34.2252 240.24 34.4491C239.568 34.673 238.693 34.7862 237.618 34.7862H225.11Z" fill="white"/>
<path fill-rule="evenodd" clip-rule="evenodd" d="M139.587 58.5971V42.386H142.674V56.2022H155.821V58.5971H139.587Z" fill="white"/>
<path fill-rule="evenodd" clip-rule="evenodd" d="M176.731 58.5971L168.372 45.5407L159.876 58.5971H156.468L167.245 42.386H169.479L180.185 58.5971H176.731Z" fill="white"/>
<path fill-rule="evenodd" clip-rule="evenodd" d="M181.682 58.5971V42.386H194.877C195.768 42.386 196.532 42.4665 197.169 42.6276C197.805 42.7886 198.321 43.02 198.711 43.3194C199.103 43.6187 199.39 43.986 199.574 44.4237C199.757 44.8615 199.851 45.3495 199.851 45.8854V47.3822C199.851 48.0891 199.677 48.6828 199.332 49.1658C198.988 49.6488 198.522 49.9532 197.939 50.0765C198.552 50.245 199.058 50.5343 199.458 50.9394C199.858 51.3469 200.057 51.9406 200.057 52.723V55.0953C200.057 55.5556 199.976 55.9984 199.815 56.4185C199.654 56.8411 199.378 57.2135 198.985 57.5355C198.593 57.8575 198.067 58.1141 197.408 58.3078C196.749 58.499 195.919 58.5946 194.92 58.5946H181.68L181.682 58.5971ZM196.998 52.7708C196.998 52.2651 196.807 51.9079 196.422 51.6991C196.037 51.4928 195.539 51.3871 194.925 51.3871H184.746V56.1996H194.925C195.539 56.1996 196.037 56.0839 196.422 55.855C196.807 55.6235 196.998 55.1783 196.998 54.5192V52.7683V52.7708ZM196.789 46.0464C196.789 45.6011 196.651 45.2791 196.374 45.0803C196.097 44.8816 195.599 44.781 194.877 44.781H184.744V48.9947H194.877C195.599 48.9947 196.097 48.8941 196.374 48.6954C196.651 48.4966 196.789 48.1746 196.789 47.7294V46.0489V46.0464Z" fill="white"/>
<path fill-rule="evenodd" clip-rule="evenodd" d="M209.455 51.8928V49.0903H242.808V51.8928H209.455Z" fill="white"/>
<path fill-rule="evenodd" clip-rule="evenodd" d="M96.8411 51.8928V49.0903H130.194V51.8928H96.8411Z" fill="white"/>
<path fill-rule="evenodd" clip-rule="evenodd" d="M17.806 42.5923C18.289 42.3659 18.8072 41.898 19.3053 41.5634C19.8387 41.2036 20.2236 40.9093 20.782 40.5169C23.5719 38.5622 25.9794 36.5773 28.5806 34.449L37.4912 26.8366C39.139 25.2769 41.3829 23.6719 42.7112 21.8304C43.7502 20.3914 45.5086 15.2041 49.7828 19.5638C50.2457 20.0367 50.6306 20.3562 51.1438 20.8644L58.5374 28.741L61.4983 31.0001C62.1675 30.7183 63.5335 28.4391 67.1611 32.1598C67.5863 32.5975 67.6693 32.678 68.1045 33.0327C68.7913 33.5937 69.2491 34.1421 69.9107 34.7258L75.2943 39.7118C75.6666 40.1043 76.7483 41.1055 77.3219 41.1634C78.0942 39.6817 78.7081 35.1861 78.8112 33.2692C79.2213 25.5486 76.6326 17.4858 72.0591 11.9916C68.9347 8.23819 66.3511 5.91371 61.7725 3.5062C52.4695 -1.38428 40.8748 -1.13271 31.6951 4.09739C30.49 4.78417 27.9618 6.49483 26.9077 7.43318C24.6587 9.43314 23.7002 10.4017 21.7254 13.0356C17.3029 18.9323 15.0463 27.0907 15.9041 34.9446C16.1054 36.7937 16.9054 41.4703 17.801 42.5898L17.806 42.5923Z" fill="white"/>
<path fill-rule="evenodd" clip-rule="evenodd" d="M20.7543 48.6048C21.1996 49.4878 22.4197 51.0551 23.0562 51.757C24.948 53.8399 26.2612 55.3041 28.6108 56.9896C39.6898 64.9366 54.4191 65.2561 65.4001 57.4072C66.034 56.9543 66.4215 56.6701 67.0051 56.2097C68.3132 55.1758 70.0591 53.5532 71.0905 52.3129C71.8729 51.3721 75.1483 47.2438 75.3597 45.8023C74.3987 44.9596 68.3585 40.8465 67.2793 40.1597C66.1372 39.4326 65.3347 38.5446 64.7208 38.2151C64.1724 38.7509 63.2064 40.3911 62.7309 41.1534L57.4908 50.5469C57.3575 45.4275 57.3323 37.327 55.2795 33.1208C54.4619 31.4403 52.5248 30.7032 50.4897 28.102C50.2733 27.8253 50.1224 27.7222 49.8909 27.4429C49.4607 26.9297 48.7689 25.8581 47.7778 25.848C46.618 25.8354 45.3828 27.1763 44.8923 27.6794C46.0721 27.6492 46.7916 27.7373 47.3878 28.4064C49.2645 30.5171 46.1375 33.1183 44.5828 34.2026C39.8861 37.478 33.9591 41.0855 28.8473 43.9558L21.1342 48.2853C20.9707 48.3935 21.0109 48.3734 20.8977 48.4665C20.8826 48.479 20.8374 48.557 20.8273 48.5344C20.8172 48.5117 20.7795 48.5797 20.7568 48.6048H20.7543Z" fill="white"/>
<path fill-rule="evenodd" clip-rule="evenodd" d="M46.0445 29.6114C44.9652 29.0982 41.5188 30.9271 40.4924 31.3749C34.412 34.0239 39.6395 29.6165 41.2471 28.3511L43.3124 26.6354C46.4168 23.7147 47.9287 23.3499 49.8532 24.9222C50.5425 25.4857 56.1575 31.0655 56.3512 31.3447C58.6203 34.5925 58.4644 39.4402 59.1109 43.6841L62.0869 38.8238C64.1926 35.7321 64.3762 35.6742 65.7397 36.6478L76.7383 44.5068L93.3342 56.6248L78.9948 42.6099L76.1798 42.7458L67.1762 34.6604C65.5913 33.2969 62.6127 29.4907 62.4668 34.2076C57.0656 29.785 52.4695 23.8732 47.8507 20.233C45.9036 18.6984 45.5916 20.8745 44.2332 22.7939C43.1162 24.3738 41.7879 25.2694 40.7012 26.4065L34.983 31.3322C32.9 32.9573 29.6372 35.9308 27.2498 37.8855C18.9556 44.6778 9.04135 50.7733 0 56.7204C14.279 50.0413 28.4498 42.942 41.554 34.122C42.9904 33.156 46.369 31.1686 46.0445 29.6114Z" fill="white"/>
<path fill-rule="evenodd" clip-rule="evenodd" d="M168.327 50.3204C169.099 50.3204 169.728 50.9468 169.728 51.7217C169.728 52.4965 169.101 53.1229 168.327 53.1229C167.552 53.1229 166.925 52.4965 166.925 51.7217C166.925 50.9468 167.552 50.3204 168.327 50.3204Z" fill="white"/>
</g>
</svg>
