<svg width="219" height="66" viewBox="0 0 219 66" fill="none" xmlns="http://www.w3.org/2000/svg">
<g clip-path="url(#clip0_108_593)">
<g style="mix-blend-mode:multiply">
<path d="M4.64143 19.6761H10.4323L5.79328 41.7163H0L4.64143 19.6761Z" fill="white"/>
<path d="M13.1078 25.6934H18.4029L17.9655 27.6381H18.0262C18.8063 26.5586 20.7649 25.2332 23.6008 25.2332C26.4367 25.2332 28.2422 26.9947 28.2422 29.7395C28.2422 30.7902 27.8656 32.3951 27.676 33.1952L25.7465 41.7163H20.4539L22.2934 33.2289C22.4441 32.4867 22.5996 31.8071 22.5996 31.1878C22.5996 29.9251 21.7928 29.2479 20.6726 29.2479C17.4017 29.2479 17.0299 32.3011 16.4685 34.9302L15.0372 41.7163H9.74213L13.1053 25.6934H13.1078Z" fill="white"/>
<path d="M30.5119 25.6934H35.8702L36.5239 36.9979H36.5846L41.8457 25.6934H47.3863L38.6696 41.7163H32.5046L30.5119 25.6934Z" fill="white"/>
<path d="M51.843 34.9929C51.8114 35.299 51.7799 35.5448 51.7799 36.0677C51.9378 37.7353 52.9001 38.6317 54.6425 38.6317C56.3848 38.6317 57.3228 37.9497 57.7262 36.8726H62.895C61.6216 40.7018 58.3507 42.1862 54.4286 42.1862C49.9452 42.1862 46.6743 39.9282 46.6743 35.205C46.6743 29.525 50.4433 25.2332 56.2925 25.2332C60.4649 25.2332 63.675 27.6092 63.675 32.2433C63.675 33.1976 63.6143 34.094 63.4879 34.9929H51.843ZM58.5622 32.0553C58.7201 30.2648 57.8793 28.7828 56.1054 28.7828C53.9256 28.7828 52.7737 30.0456 52.2124 32.0553H58.5646H58.5622Z" fill="white"/>
<path d="M68.4671 25.6934H73.7598L73.3224 27.6381H73.3832C74.1632 26.5586 76.1243 25.2332 78.9577 25.2332C81.7912 25.2332 83.5943 26.9947 83.5943 29.7395C83.5943 30.7902 83.2201 32.3951 83.0329 33.1952L81.1035 41.7163H75.8108L77.6455 33.2289C77.8034 32.4867 77.9565 31.8071 77.9565 31.1878C77.9565 29.9251 77.1473 29.2479 76.0271 29.2479C72.7562 29.2479 72.3844 32.3011 71.823 34.9302L70.3917 41.7163H65.0991L68.4623 25.6934H68.4671Z" fill="white"/>
<path d="M94.3376 25.6934H97.6692L96.9524 29.0889H93.5892L92.3109 35.1423C92.1578 35.8508 92.0315 36.499 92.0315 37.0557C92.0315 37.8269 92.7799 37.8919 93.6839 37.8919C94.2428 37.8919 94.7726 37.8293 95.3291 37.7979L94.5223 41.7163C93.4628 41.7814 92.4665 41.9043 91.4361 41.9043C88.9793 41.9043 86.4229 41.5621 86.4229 39.1233C86.4229 38.0124 86.644 36.7786 87.0498 34.8941L88.2989 29.0889H85.6185L86.333 25.6934H89.0109L90.0364 20.8762H95.3291L94.3352 25.6934H94.3376Z" fill="white"/>
<path d="M112.459 41.7163H107.385L107.849 39.5233H107.788C106.605 41.3187 104.675 42.1862 102.495 42.1862C98.1042 42.1862 97.6692 38.8486 97.6692 37.9859C97.6692 36.9328 97.8272 36.1014 97.9803 35.4218L100.068 25.6934H105.36L103.523 34.588C103.365 35.3279 103.305 35.8845 103.305 36.5014C103.305 37.4268 103.834 38.1666 105.052 38.1666C107.29 38.1666 108.286 36.6267 108.721 34.3688L110.59 25.6934H115.883L112.459 41.7163Z" fill="white"/>
<path d="M119.805 25.6934H124.944L124.354 28.3177H124.415C125.506 26.4332 127.338 25.2332 129.491 25.2332C130.203 25.2332 130.738 25.2645 131.267 25.5079L130.239 30.1395C129.52 29.9564 128.832 29.8311 127.838 29.8311C124.944 29.8311 123.824 31.6553 123.289 34.3688L121.732 41.7163H116.444L119.802 25.6934H119.805Z" fill="white"/>
<path d="M135.467 34.9929C135.432 35.299 135.406 35.5448 135.406 36.0677C135.559 37.7353 136.526 38.6317 138.271 38.6317C140.016 38.6317 140.946 37.9497 141.352 36.8726H146.526C145.245 40.7018 141.974 42.1862 138.052 42.1862C133.569 42.1862 130.303 39.9282 130.303 35.205C130.303 29.525 134.069 25.2332 139.921 25.2332C144.096 25.2332 147.298 27.6092 147.298 32.2433C147.298 33.1976 147.238 34.094 147.114 34.9929H135.469H135.467ZM142.195 32.0553C142.348 30.2648 141.508 28.7828 139.734 28.7828C137.554 28.7828 136.402 30.0456 135.843 32.0553H142.195Z" fill="white"/>
<path d="M4.64143 19.6761H10.4323L5.79328 41.7163H0L4.64143 19.6761Z" fill="white"/>
<path d="M13.1078 25.6934H18.4029L17.9655 27.6381H18.0262C18.8063 26.5586 20.7649 25.2332 23.6008 25.2332C26.4367 25.2332 28.2422 26.9947 28.2422 29.7395C28.2422 30.7902 27.8656 32.3951 27.676 33.1952L25.7465 41.7163H20.4539L22.2934 33.2289C22.4441 32.4867 22.5996 31.8071 22.5996 31.1878C22.5996 29.9251 21.7928 29.2479 20.6726 29.2479C17.4017 29.2479 17.0299 32.3011 16.4685 34.9302L15.0372 41.7163H9.74213L13.1053 25.6934H13.1078Z" fill="white"/>
<path d="M30.5119 25.6934H35.8702L36.5239 36.9979H36.5846L41.8457 25.6934H47.3863L38.6696 41.7163H32.5046L30.5119 25.6934Z" fill="white"/>
<path d="M51.843 34.9929C51.8114 35.299 51.7799 35.5448 51.7799 36.0677C51.9378 37.7353 52.9001 38.6317 54.6425 38.6317C56.3848 38.6317 57.3228 37.9497 57.7262 36.8726H62.895C61.6216 40.7018 58.3507 42.1862 54.4286 42.1862C49.9452 42.1862 46.6743 39.9282 46.6743 35.205C46.6743 29.525 50.4433 25.2332 56.2925 25.2332C60.4649 25.2332 63.675 27.6092 63.675 32.2433C63.675 33.1976 63.6143 34.094 63.4879 34.9929H51.843ZM58.5622 32.0553C58.7201 30.2648 57.8793 28.7828 56.1054 28.7828C53.9256 28.7828 52.7737 30.0456 52.2124 32.0553H58.5646H58.5622Z" fill="white"/>
<path d="M68.4671 25.6934H73.7598L73.3224 27.6381H73.3832C74.1632 26.5586 76.1243 25.2332 78.9577 25.2332C81.7912 25.2332 83.5943 26.9947 83.5943 29.7395C83.5943 30.7902 83.2201 32.3951 83.0329 33.1952L81.1035 41.7163H75.8108L77.6455 33.2289C77.8034 32.4867 77.9565 31.8071 77.9565 31.1878C77.9565 29.9251 77.1473 29.2479 76.0271 29.2479C72.7562 29.2479 72.3844 32.3011 71.823 34.9302L70.3917 41.7163H65.0991L68.4623 25.6934H68.4671Z" fill="white"/>
<path d="M94.3376 25.6934H97.6692L96.9524 29.0889H93.5892L92.3109 35.1423C92.1578 35.8508 92.0315 36.499 92.0315 37.0557C92.0315 37.8269 92.7799 37.8919 93.6839 37.8919C94.2428 37.8919 94.7726 37.8293 95.3291 37.7979L94.5223 41.7163C93.4628 41.7814 92.4665 41.9043 91.4361 41.9043C88.9793 41.9043 86.4229 41.5621 86.4229 39.1233C86.4229 38.0124 86.644 36.7786 87.0498 34.8941L88.2989 29.0889H85.6185L86.333 25.6934H89.0109L90.0364 20.8762H95.3291L94.3352 25.6934H94.3376Z" fill="white"/>
<path d="M112.459 41.7163H107.385L107.849 39.5233H107.788C106.605 41.3187 104.675 42.1862 102.495 42.1862C98.1042 42.1862 97.6692 38.8486 97.6692 37.9859C97.6692 36.9328 97.8272 36.1014 97.9803 35.4218L100.068 25.6934H105.36L103.523 34.588C103.365 35.3279 103.305 35.8845 103.305 36.5014C103.305 37.4268 103.834 38.1666 105.052 38.1666C107.29 38.1666 108.286 36.6267 108.721 34.3688L110.59 25.6934H115.883L112.459 41.7163Z" fill="white"/>
<path d="M119.805 25.6934H124.944L124.354 28.3177H124.415C125.506 26.4332 127.338 25.2332 129.491 25.2332C130.203 25.2332 130.738 25.2645 131.267 25.5079L130.239 30.1395C129.52 29.9564 128.832 29.8311 127.838 29.8311C124.944 29.8311 123.824 31.6553 123.289 34.3688L121.732 41.7163H116.444L119.802 25.6934H119.805Z" fill="white"/>
<path d="M135.467 34.9929C135.432 35.299 135.406 35.5448 135.406 36.0677C135.559 37.7353 136.526 38.6317 138.271 38.6317C140.016 38.6317 140.946 37.9497 141.352 36.8726H146.526C145.245 40.7018 141.974 42.1862 138.052 42.1862C133.569 42.1862 130.303 39.9282 130.303 35.205C130.303 29.525 134.069 25.2332 139.921 25.2332C144.096 25.2332 147.298 27.6092 147.298 32.2433C147.298 33.1976 147.238 34.094 147.114 34.9929H135.469H135.467ZM142.195 32.0553C142.348 30.2648 141.508 28.7828 139.734 28.7828C137.554 28.7828 136.402 30.0456 135.843 32.0553H142.195Z" fill="white"/>
<path d="M40.9782 44.7816H45.5079L48.3267 61.8431H43.819L43.4059 58.7875H37.3623L35.6224 61.8431H30.9226L40.9734 44.7816H40.9782ZM39.0974 55.4836H43.0219L42.3755 49.3434H42.3293L39.0974 55.4836Z" fill="white"/>
<path d="M59.053 53.9533C59.0749 53.3581 58.8829 52.8809 58.5451 52.5436C58.2292 52.2351 57.7967 52.0929 57.2183 52.0688C54.815 51.9724 54.0617 54.4811 54.0617 56.3703C54.0617 58.2596 54.764 59.2139 56.1345 59.2139C57.5051 59.2139 58.2098 58.3753 58.5208 57.1102H62.4964C61.7528 60.6478 59.2669 62.2021 55.9644 62.2021C52.4967 62.2021 49.967 60.455 49.967 56.8017C49.967 52.4014 52.8831 49.0782 57.4127 49.0782C60.567 49.0782 63.0019 50.6374 63.0262 53.9533H59.0506H59.053Z" fill="white"/>
<path d="M65.0043 53.2641C65.6555 50.0374 68.0637 49.0807 71.1232 49.0807C74.5933 49.0807 76.8338 49.9193 76.8338 52.3315C76.8338 53.9823 75.8958 57.4235 75.6066 58.5657C75.3879 59.426 75.2154 60.2213 75.2154 60.8888C75.2154 61.3201 75.315 61.631 75.3879 61.8407H71.3637C71.2714 61.2454 71.2714 61.2912 71.2714 60.6478H71.2228C70.4525 61.7467 69.2228 62.2021 67.4392 62.2021C65.1039 62.2021 63.3664 61.2671 63.3664 58.7127C63.3664 55.392 66.3505 54.7462 69.5606 54.5076C70.9555 54.4329 72.885 54.5317 72.885 52.9051C72.885 52.1893 72.3795 51.7074 71.1499 51.7074C69.8474 51.7074 69.0527 52.093 68.8851 53.2641H65.0067H65.0043ZM69.1256 59.6887C71.6043 59.6887 72.0879 57.2765 72.2313 56.1535H72.2094C71.1718 57.0162 67.461 56.0113 67.461 58.3994C67.461 59.3802 68.3019 59.6887 69.1256 59.6887Z" fill="white"/>
<path d="M90.0145 61.8407H86.0389L86.3743 60.3129H86.3281C85.48 61.6286 84.2528 62.2022 82.6879 62.2022C79.4364 62.2022 78.0853 59.9104 78.0853 56.9223C78.0853 52.9051 80.3939 49.0807 84.734 49.0807C86.4691 49.0807 87.6792 49.7025 88.158 51.0881H88.2041L89.5018 44.7816H93.5989L90.0097 61.8431L90.0145 61.8407ZM87.4362 54.4811C87.4362 53.1172 86.6878 52.1918 85.3439 52.1918C83.0329 52.1918 82.1849 54.7462 82.1849 56.6813C82.1849 57.997 82.7656 59.0935 84.2577 59.0935C86.5468 59.0935 87.4387 56.3704 87.4387 54.4811" fill="white"/>
<path d="M97.2683 56.633C97.244 56.8716 97.2221 57.0644 97.2221 57.4692C97.3387 58.7633 98.0872 59.4549 99.4383 59.4549C100.789 59.4549 101.509 58.9272 101.825 58.0934H105.825C104.833 61.0526 102.306 62.2021 99.2658 62.2021C95.8005 62.2021 93.2684 60.455 93.2684 56.8017C93.2684 52.4014 96.1845 49.0782 100.714 49.0782C103.941 49.0782 106.425 50.9193 106.425 54.5076C106.425 55.2498 106.379 55.9414 106.281 56.633H97.2683ZM102.476 54.3582C102.597 52.9725 101.944 51.8254 100.573 51.8254C98.8843 51.8254 97.9924 52.8062 97.5599 54.3582H102.476Z" fill="white"/>
<path d="M110.135 49.4397H114.089L113.754 51.0398H113.8C114.719 49.8711 116.305 49.0782 117.919 49.0782C119.411 49.0782 120.811 49.6036 121.102 51.2061C122.232 49.847 123.416 49.0782 125.246 49.0782C127.561 49.0782 129.267 50.059 129.267 52.3797C129.267 53.3581 129.078 54.1943 128.934 54.8618L127.338 61.8406H123.246L124.641 55.2474C124.762 54.7895 124.903 54.0521 124.903 53.5027C124.903 52.5918 124.327 52.1893 123.532 52.1893C121.941 52.1893 121.241 53.4786 120.881 55.245L119.484 61.8382H115.387L116.736 55.4353C116.884 54.8377 117.027 54.0497 117.027 53.5003C117.027 52.7821 116.592 52.1869 115.727 52.1869C114.233 52.1869 113.508 53.093 113.146 54.7413L111.625 61.8358H107.53L110.131 49.4349L110.135 49.4397Z" fill="white"/>
<path d="M129.945 62.7997C130.48 62.8696 130.983 62.8913 131.513 62.8913C132.745 62.8913 132.837 62.3443 133.345 61.5322L131.032 49.4373H135.199L136.14 58.1657H136.186L139.921 49.4373H144.21L137.843 61.2647C135.943 64.7083 135.364 66 131.267 66C130.594 66 129.943 65.9253 129.267 65.8554L129.943 62.7973L129.945 62.7997Z" fill="white"/>
<path d="M205.955 18.2857C207.051 15.9698 207.766 12.4009 207.372 8.28976C207.336 7.88973 207.061 7.42464 206.803 7.2198C201.171 2.70381 194.002 0 186.199 0C185.774 0 184.938 0.0240981 184.938 0.0240981C184.938 0.0240981 188.009 11.6298 191.983 17.2157C196.889 24.1295 203.234 24.0692 205.955 18.2857ZM198.378 7.35716C201.207 6.96436 203.868 9.22236 204.318 12.3937C204.772 15.5674 202.952 18.7941 200.121 19.1918C197.287 19.5846 194.512 16.9916 194.063 13.8251C193.616 10.6514 195.545 7.75478 198.378 7.35957V7.35716Z" fill="white"/>
<path d="M212.947 13.695C212.796 13.4901 212.711 13.3094 212.504 13.0925C212.359 12.9335 211.933 12.7624 211.758 13.3407C210.709 17.0398 206.055 31.4481 195.239 41.497C183.424 52.4737 168.477 55.645 164.788 56.286C164.426 56.3439 164.377 56.4981 164.365 56.6138C164.35 56.7656 164.472 56.8885 164.647 57.0572C164.865 57.2548 165.084 57.4235 165.298 57.6042C170.975 62.26 178.255 65.0578 186.199 65.0578C204.313 65.0578 218.998 50.4953 218.998 32.5325C218.998 25.5127 216.757 19.011 212.947 13.695Z" fill="white"/>
<path d="M177.409 39.774C187.178 35.2893 188.111 25.4525 186.566 19.0906C185.135 13.2178 183.266 6.34264 181.052 2.98817C180.571 2.26282 179.985 1.57361 179.334 1.29407C178.525 0.95429 177.662 1.10852 177.509 1.15671C177.38 1.18804 177.251 1.2266 177.125 1.26275C163.422 5.16906 153.398 17.6856 153.398 32.5349C153.398 35.1038 153.634 37.6244 154.268 40.0077C154.528 40.9885 155.148 41.4874 156.389 41.7018C157.514 41.897 169.643 42.391 175.074 40.6006C175.886 40.3331 176.693 40.1065 177.407 39.7764L177.409 39.774Z" fill="white"/>
</g>
</g>
<defs>
<clipPath id="clip0_108_593">
<rect width="219" height="66" fill="white"/>
</clipPath>
</defs>
</svg>
