<svg width="184" height="77" viewBox="0 0 184 77" fill="none" xmlns="http://www.w3.org/2000/svg">
<path d="M156.917 73.8233C159.476 74.0744 162.034 74.3351 164.584 74.6151L170.223 60.701L175.582 75.8993C178.333 76.2469 181.076 76.6042 183.818 76.9807L174.423 50.321L183.818 27.1181H175.862L175.784 27.234L170.705 39.7672L166.254 27.1181H158.394L166.505 50.1376L156.917 73.8233Z" fill="white"/>
<path d="M150.969 73.2729V27.1181H143.119V72.626C145.735 72.8288 148.362 73.0509 150.969 73.2729Z" fill="white"/>
<path d="M91.9814 70.6948C94.1057 70.6948 96.2203 70.714 98.3349 70.7237V53.7681H107.769V46.5455H98.3349V34.3405H109.198V27.1083H90.4461V70.6851C90.9579 70.7044 91.4696 70.6948 91.9814 70.6948Z" fill="white"/>
<path d="M67.5908 71.1389C70.2075 71.0423 72.8242 70.9651 75.4506 70.9072V34.3599H82.789V27.1276H60.2523V34.3599H67.5908V71.1389Z" fill="white"/>
<path d="M7.53158 76.0057V48.5059L16.8301 74.8953C19.6882 74.5766 22.556 74.2676 25.4238 73.9876V27.1279H17.8923V55.6126L7.85987 27.1279H7.53158H1.52588e-05V77.0002H0.0483121C2.52986 76.643 5.03072 76.3244 7.53158 76.0057Z" fill="white"/>
<path d="M52.6822 34.3503V27.1181H33.9306V65.9635V73.1957V73.2053C40.1489 72.6646 46.3962 72.2204 52.6725 71.8535V71.8438V69.7582V64.6116C49.0516 64.8241 45.4307 65.0655 41.8194 65.3358V53.7778H51.2531V46.5553H41.8194V34.36L52.6822 34.3503Z" fill="white"/>
<path d="M124.763 64.264V27.1181H116.874V63.9261V71.1583V71.168C123.15 71.3997 129.398 71.7183 135.626 72.1239V72.1142V69.7775V64.882C132.014 64.6503 128.394 64.4475 124.763 64.264Z" fill="white"/>
<path d="M57.2005 12V4.027C57.2005 3.831 57.2098 3.63267 57.2285 3.432C57.2472 3.22667 57.2892 3.02833 57.3545 2.837C57.4198 2.641 57.5272 2.46133 57.6765 2.298C57.8492 2.10667 58.0382 1.97133 58.2435 1.892C58.4488 1.808 58.6565 1.75667 58.8665 1.738C59.0812 1.71933 59.2842 1.71 59.4755 1.71H60.4345V2.746H59.5455C59.1768 2.746 58.9015 2.837 58.7195 3.019C58.5375 3.19633 58.4465 3.467 58.4465 3.831V12H57.2005ZM55.9195 5.469V4.44H60.4345V5.469H55.9195ZM64.5543 12.21C63.8123 12.21 63.1637 12.0467 62.6083 11.72C62.0577 11.3887 61.6283 10.929 61.3203 10.341C61.0123 9.74833 60.8583 9.05767 60.8583 8.269C60.8583 7.443 61.01 6.729 61.3133 6.127C61.6167 5.52033 62.039 5.05367 62.5803 4.727C63.1263 4.39567 63.7657 4.23 64.4983 4.23C65.259 4.23 65.9053 4.405 66.4373 4.755C66.974 5.105 67.3753 5.60433 67.6413 6.253C67.912 6.90167 68.0287 7.674 67.9913 8.57H66.7313V8.122C66.7173 7.19333 66.5283 6.50033 66.1643 6.043C65.8003 5.581 65.259 5.35 64.5403 5.35C63.7703 5.35 63.1847 5.59733 62.7833 6.092C62.382 6.58667 62.1813 7.296 62.1813 8.22C62.1813 9.11133 62.382 9.802 62.7833 10.292C63.1847 10.782 63.7563 11.027 64.4983 11.027C64.9977 11.027 65.4317 10.9127 65.8003 10.684C66.169 10.4553 66.4583 10.1263 66.6683 9.697L67.8653 10.11C67.5713 10.7773 67.128 11.2953 66.5353 11.664C65.9473 12.028 65.287 12.21 64.5543 12.21ZM61.7613 8.57V7.569H67.3473V8.57H61.7613ZM71.5621 12.21C70.9974 12.21 70.5238 12.1073 70.1411 11.902C69.7631 11.692 69.4761 11.4167 69.2801 11.076C69.0888 10.7353 68.9931 10.362 68.9931 9.956C68.9931 9.55933 69.0678 9.21633 69.2171 8.927C69.3711 8.633 69.5858 8.39033 69.8611 8.199C70.1364 8.003 70.4654 7.849 70.8481 7.737C71.2074 7.639 71.6088 7.555 72.0521 7.485C72.5001 7.41033 72.9528 7.34267 73.4101 7.282C73.8674 7.22133 74.2944 7.163 74.6911 7.107L74.2431 7.366C74.2571 6.694 74.1218 6.197 73.8371 5.875C73.5571 5.553 73.0718 5.392 72.3811 5.392C71.9238 5.392 71.5224 5.497 71.1771 5.707C70.8364 5.91233 70.5961 6.24833 70.4561 6.715L69.2731 6.358C69.4551 5.69533 69.8074 5.175 70.3301 4.797C70.8528 4.419 71.5411 4.23 72.3951 4.23C73.0811 4.23 73.6691 4.35367 74.1591 4.601C74.6538 4.84367 75.0084 5.21233 75.2231 5.707C75.3304 5.94033 75.3981 6.19467 75.4261 6.47C75.4541 6.74067 75.4681 7.02533 75.4681 7.324V12H74.3621V10.187L74.6211 10.355C74.3364 10.9663 73.9374 11.4283 73.4241 11.741C72.9154 12.0537 72.2948 12.21 71.5621 12.21ZM71.7511 11.167C72.1991 11.167 72.5864 11.0877 72.9131 10.929C73.2444 10.7657 73.5104 10.5533 73.7111 10.292C73.9118 10.026 74.0424 9.73667 74.1031 9.424C74.1731 9.19067 74.2104 8.93167 74.2151 8.647C74.2244 8.35767 74.2291 8.136 74.2291 7.982L74.6631 8.171C74.2571 8.227 73.8581 8.28067 73.4661 8.332C73.0741 8.38333 72.7031 8.43933 72.3531 8.5C72.0031 8.556 71.6881 8.62367 71.4081 8.703C71.2028 8.76833 71.0091 8.85233 70.8271 8.955C70.6498 9.05767 70.5051 9.19067 70.3931 9.354C70.2858 9.51267 70.2321 9.711 70.2321 9.949C70.2321 10.1543 70.2834 10.3503 70.3861 10.537C70.4934 10.7237 70.6568 10.8753 70.8761 10.992C71.1001 11.1087 71.3918 11.167 71.7511 11.167ZM81.5091 12C81.0611 12.0887 80.6178 12.1237 80.1791 12.105C79.7451 12.091 79.3578 12.0047 79.0171 11.846C78.6764 11.6827 78.4174 11.4307 78.2401 11.09C78.0908 10.7913 78.0091 10.4903 77.9951 10.187C77.9858 9.879 77.9811 9.53133 77.9811 9.144V2.34H79.2271V9.088C79.2271 9.396 79.2294 9.65967 79.2341 9.879C79.2434 10.0983 79.2924 10.2873 79.3811 10.446C79.5491 10.7447 79.8151 10.9197 80.1791 10.971C80.5478 11.0223 80.9911 11.0083 81.5091 10.929V12ZM76.4481 5.469V4.44H81.5091V5.469H76.4481ZM85.914 12.196C85.4286 12.196 85.011 12.119 84.661 11.965C84.3156 11.811 84.0286 11.6057 83.8 11.349C83.5713 11.0923 83.3916 10.8077 83.261 10.495C83.1303 10.1823 83.037 9.86267 82.981 9.536C82.9296 9.20933 82.904 8.90367 82.904 8.619V4.44H84.164V8.227C84.164 8.58167 84.1966 8.92467 84.262 9.256C84.3273 9.58733 84.437 9.886 84.591 10.152C84.7496 10.418 84.9596 10.628 85.221 10.782C85.487 10.936 85.8183 11.013 86.215 11.013C86.5276 11.013 86.8123 10.9593 87.069 10.852C87.3256 10.7447 87.545 10.586 87.727 10.376C87.909 10.1613 88.049 9.89067 88.147 9.564C88.245 9.23733 88.294 8.857 88.294 8.423L89.113 8.675C89.113 9.403 88.98 10.0307 88.714 10.558C88.4526 11.0853 88.0816 11.4913 87.601 11.776C87.125 12.056 86.5626 12.196 85.914 12.196ZM88.434 12V9.977H88.294V4.44H89.547V12H88.434ZM91.5069 12V4.44H92.6199V6.267L92.4379 6.029C92.5265 5.79567 92.6409 5.581 92.7809 5.385C92.9255 5.189 93.0865 5.028 93.2639 4.902C93.4599 4.74333 93.6815 4.622 93.9289 4.538C94.1762 4.454 94.4282 4.405 94.6849 4.391C94.9415 4.37233 95.1819 4.38867 95.4059 4.44V5.609C95.1445 5.539 94.8575 5.52033 94.5449 5.553C94.2322 5.58567 93.9429 5.7 93.6769 5.896C93.4342 6.06867 93.2452 6.27867 93.1099 6.526C92.9792 6.77333 92.8882 7.04167 92.8369 7.331C92.7855 7.61567 92.7599 7.90733 92.7599 8.206V12H91.5069ZM99.8688 12.21C99.1268 12.21 98.4781 12.0467 97.9228 11.72C97.3721 11.3887 96.9428 10.929 96.6348 10.341C96.3268 9.74833 96.1728 9.05767 96.1728 8.269C96.1728 7.443 96.3245 6.729 96.6278 6.127C96.9311 5.52033 97.3535 5.05367 97.8948 4.727C98.4408 4.39567 99.0801 4.23 99.8128 4.23C100.573 4.23 101.22 4.405 101.752 4.755C102.288 5.105 102.69 5.60433 102.956 6.253C103.226 6.90167 103.343 7.674 103.306 8.57H102.046V8.122C102.032 7.19333 101.843 6.50033 101.479 6.043C101.115 5.581 100.573 5.35 99.8548 5.35C99.0848 5.35 98.4991 5.59733 98.0978 6.092C97.6965 6.58667 97.4958 7.296 97.4958 8.22C97.4958 9.11133 97.6965 9.802 98.0978 10.292C98.4991 10.782 99.0708 11.027 99.8128 11.027C100.312 11.027 100.746 10.9127 101.115 10.684C101.483 10.4553 101.773 10.1263 101.983 9.697L103.18 10.11C102.886 10.7773 102.442 11.2953 101.85 11.664C101.262 12.028 100.601 12.21 99.8688 12.21ZM97.0758 8.57V7.569H102.662V8.57H97.0758ZM107.832 12.21C107.128 12.21 106.523 12.035 106.019 11.685C105.515 11.3303 105.126 10.852 104.85 10.25C104.58 9.648 104.444 8.969 104.444 8.213C104.444 7.457 104.58 6.778 104.85 6.176C105.126 5.574 105.515 5.10033 106.019 4.755C106.523 4.405 107.125 4.23 107.825 4.23C108.539 4.23 109.139 4.40267 109.624 4.748C110.11 5.09333 110.476 5.567 110.723 6.169C110.975 6.771 111.101 7.45233 111.101 8.213C111.101 8.96433 110.975 9.64333 110.723 10.25C110.476 10.852 110.11 11.3303 109.624 11.685C109.139 12.035 108.542 12.21 107.832 12.21ZM107.986 11.069C108.495 11.069 108.913 10.9477 109.239 10.705C109.566 10.4577 109.806 10.1193 109.96 9.69C110.119 9.256 110.198 8.76367 110.198 8.213C110.198 7.653 110.119 7.16067 109.96 6.736C109.806 6.30667 109.568 5.973 109.246 5.735C108.924 5.49233 108.516 5.371 108.021 5.371C107.508 5.371 107.083 5.497 106.747 5.749C106.416 6.001 106.169 6.34167 106.005 6.771C105.847 7.20033 105.767 7.681 105.767 8.213C105.767 8.74967 105.849 9.235 106.012 9.669C106.176 10.0983 106.421 10.439 106.747 10.691C107.079 10.943 107.492 11.069 107.986 11.069ZM110.198 12V6.435H110.058V1.92H111.311V12H110.198ZM116.215 3.103V1.815H117.461V3.103H116.215ZM116.215 12V4.44H117.461V12H116.215ZM124.945 12V8.213C124.945 7.85367 124.912 7.50833 124.847 7.177C124.786 6.84567 124.676 6.54933 124.518 6.288C124.364 6.022 124.154 5.812 123.888 5.658C123.626 5.504 123.295 5.427 122.894 5.427C122.581 5.427 122.296 5.48067 122.04 5.588C121.788 5.69067 121.571 5.84933 121.389 6.064C121.207 6.27867 121.064 6.54933 120.962 6.876C120.864 7.198 120.815 7.57833 120.815 8.017L119.996 7.765C119.996 7.03233 120.126 6.40467 120.388 5.882C120.654 5.35467 121.025 4.951 121.501 4.671C121.981 4.38633 122.546 4.244 123.195 4.244C123.685 4.244 124.102 4.321 124.448 4.475C124.793 4.629 125.08 4.83433 125.309 5.091C125.537 5.343 125.717 5.62767 125.848 5.945C125.978 6.25767 126.069 6.57733 126.121 6.904C126.177 7.226 126.205 7.53167 126.205 7.821V12H124.945ZM119.555 12V4.44H120.675V6.463H120.815V12H119.555Z" fill="white"/>
</svg>
