<svg width="238" height="104" viewBox="0 0 238 104" fill="none" xmlns="http://www.w3.org/2000/svg">
<path fill-rule="evenodd" clip-rule="evenodd" d="M34.3414 55.1759C30.9829 55.1038 22.5555 52.6246 22.0366 48.6751C21.9309 47.8727 22.3873 47.0896 23.0984 46.7004C25.496 45.3839 26.9758 46.6764 29.676 47.0127C28.398 46.1479 20.3694 39.2627 22.3489 34.4773C22.7717 33.4587 23.9248 32.9494 24.9771 33.2761C29.3878 34.6454 33.3324 40.7954 35.1053 44.1924C36.2489 41.8333 36.5564 35.0779 41.2746 38.9601C43.9219 41.1366 44.8348 44.0482 46.7567 47.0944C46.6846 34.9529 39.1413 14.5907 28.8833 14.4321C25.5296 14.3793 25.6641 15.7486 23.6654 16.748C14.4836 5.95185 1.53019 14.4417 4.9223 24.7094C7.06038 31.1765 8.11261 25.3724 6.48862 33.622C3.14937 50.5634 18.8463 56.6125 34.3414 55.1759Z" fill="white"/>
<path fill-rule="evenodd" clip-rule="evenodd" d="M58.8597 7.76801C38.6272 7.81126 47.8282 31.0371 50.3651 42.3233C51.1722 37.067 50.1825 34.0016 53.3488 33.4443C54.2136 33.2953 55.0833 33.6893 55.5733 34.4196L56.6208 35.9811C57.3751 33.353 58.5378 30.105 60.4981 28.4186C61.9347 27.1838 64.1161 27.9525 64.414 29.8215C64.8896 32.786 63.1599 35.7409 62.4585 38.9937C64.2026 38.1048 65.5335 35.9763 67.7388 37.5619C68.0511 37.7877 68.2865 38.124 68.3778 38.4988C69.0505 41.2423 66.2253 43.6206 64.6926 45.086C70.2276 43.3323 78.4677 35.5775 80.9757 31.1044C85.348 23.3064 83.6615 12.5727 75.0467 10.3241C73.9417 5.57707 73.711 0.445668 68.1808 0.378402C63.1407 0.315941 60.8921 4.34708 58.8597 7.76801Z" fill="white"/>
<path fill-rule="evenodd" clip-rule="evenodd" d="M63.0254 73.1983C64.6926 75.394 67.0373 76.9123 65.764 80.3861C65.4229 81.3182 64.5485 81.9524 63.5587 82.0004C61.6272 82.1013 61.017 81.3902 59.4891 80.3909C60.0705 81.9956 61.2332 83.9127 61.4206 85.897C61.6032 87.7901 60.0897 89.4237 58.1967 89.2747C53.4689 88.9096 49.0053 81.0587 47.9579 77.5561C47.0017 78.7669 43.6337 83.6629 40.6932 76.7585C39.1653 73.1742 38.8194 69.9743 37.9978 66.0201C33.6783 71.4878 28.0569 80.9146 31.7805 90.3078C35.2783 99.134 43.7346 102.555 52.7722 103.415C63.477 104.438 74.1146 101.594 75.7962 93.0656C77.7565 83.0959 70.2084 74.8607 63.0254 73.1983Z" fill="white"/>
<path fill-rule="evenodd" clip-rule="evenodd" d="M33.2411 65.5252C30.4881 66.1594 27.6773 67.3077 24.9675 67.2308C23.3627 67.1828 22.4834 65.3234 23.502 64.079C24.5543 62.7913 26.6155 62.109 29.186 60.8886C30.022 60.4898 30.8148 59.9998 31.5643 59.452L33.7793 57.8184C15.9347 58.2605 14.1281 52.3219 6.24841 55.5651C-8.67976 61.7102 7.93485 97.4379 22.1135 86.4208C26.971 82.6491 31.7709 73.5057 33.2411 65.5252Z" fill="white"/>
<path fill-rule="evenodd" clip-rule="evenodd" d="M136.619 68.6867L140.515 68.8933L140.578 62.8249L145.483 62.7817L145.551 68.8644L149.519 68.7539C149.558 67.5672 149.443 66.2218 149.5 65.2705C149.808 60.3361 150.206 64.8909 151.288 61.5181C152.215 58.6256 149.707 58.2557 149.495 58.0731L149.481 50.7988L136.484 50.8276C136.282 64.6363 136.273 55.4882 134.884 59.8172C134.231 61.8544 135.927 62.8153 136.258 63.488C136.917 64.8429 136.542 67.0675 136.619 68.6867ZM140.496 54.8155H145.531V58.8851H140.496V54.8155Z" fill="white"/>
<path fill-rule="evenodd" clip-rule="evenodd" d="M64.7359 68.7443L68.6469 68.8788L68.7045 62.7769L73.6101 62.8105L73.6726 68.8644L77.5548 68.8596L77.6893 63.2333C79.7361 61.691 78.6358 63.7282 79.4718 61.6814C79.4766 55.8677 78.7079 60.8598 77.6124 57.5494L77.598 50.7844L64.6157 50.8036C64.3755 64.7036 64.4476 55.3969 63.0254 59.8028L64.3851 63.4784C65.0386 64.8621 64.659 67.1203 64.7359 68.7443ZM68.6613 54.8155H73.6438V58.8851H68.6613V54.8155Z" fill="white"/>
<path fill-rule="evenodd" clip-rule="evenodd" d="M118.568 56.0071L118.572 68.9605H122.594L122.652 63.9732C127.687 66.7696 124.636 69.0037 133.092 68.7155L127.245 62.3012L131.497 62.0562L131.516 51.0967L116.814 50.9237C116.252 57.7944 117.573 53.105 118.568 56.0071ZM122.613 54.8155H127.298V58.8851H122.613V54.8155Z" fill="white"/>
<path fill-rule="evenodd" clip-rule="evenodd" d="M100.814 68.7251L113.561 68.7924L113.729 50.8084L109.689 50.8901L109.669 64.8141L104.802 64.8045L104.773 50.8901L100.819 50.8372L100.814 68.7251Z" fill="white"/>
<path fill-rule="evenodd" clip-rule="evenodd" d="M82.6237 68.7443L86.4771 68.7011L86.727 64.3096C91.0368 64.9246 87.5293 68.9557 97.4078 68.6867L90.5707 61.1337C92.0698 58.4239 95.5099 57.0689 96.7255 53.7489C95.3033 52.7543 95.6445 52.5045 93.9965 51.7646L86.8519 58.6641L86.6309 50.8853L82.5997 50.7267L82.6237 68.7443Z" fill="white"/>
<path fill-rule="evenodd" clip-rule="evenodd" d="M55.213 64.7084L46.9874 64.7997L47.0258 68.8212L59.6621 68.7395C59.936 59.2983 57.7835 62.5799 51.7392 55.0125L59.6477 54.8155L59.715 51.0054L46.8288 50.7796C46.6991 56.6749 46.7279 55.8101 49.7404 58.9283C51.4557 60.7109 53.9445 62.8874 55.213 64.7084Z" fill="white"/>
<path fill-rule="evenodd" clip-rule="evenodd" d="M171.14 53.9411C172.274 56.9104 171.885 53.0762 173.005 56.0071L173.009 68.9461L177.041 68.8404L177.069 64.0838C182.153 66.3852 177.708 68.8836 187.462 68.7347C186.708 67.0771 182.715 63.1036 181.643 62.4069L185.891 62.0706L185.934 51.039L171.241 50.967L171.14 53.9411ZM177.045 54.8155H181.677V58.8851H177.045V54.8155Z" fill="white"/>
<path fill-rule="evenodd" clip-rule="evenodd" d="M191.041 68.581L203.745 68.6867L203.836 65.0591C201.213 64.1655 197.754 64.7132 194.919 64.6507L194.78 61.4844L200.146 61.3884L200.286 57.7512L194.924 57.4005L194.938 54.7243L203.832 54.7291L203.812 50.7364L190.782 50.77C190.782 52.1297 190.917 54.3543 190.792 55.5074C190.316 59.7932 189.427 55.3008 189.566 59.601C189.667 62.7433 190.595 60.2785 190.941 63.7282C191.09 65.2513 190.84 66.8657 191.041 68.581Z" fill="white"/>
<path fill-rule="evenodd" clip-rule="evenodd" d="M224.718 68.7683L228.672 68.7347L228.72 61.6238L233.587 61.6382L233.64 68.7972L237.56 68.8116L237.618 50.9285L233.582 50.8036L233.534 57.535L228.821 57.6503L228.71 50.9814L224.727 50.7748L224.718 68.7683Z" fill="white"/>
<path fill-rule="evenodd" clip-rule="evenodd" d="M216.348 64.6219L208.108 64.8045L208.156 68.8644L220.682 68.85C221.21 58.2653 216.795 62.1091 212.831 54.9164L220.658 54.8588L220.758 50.8036L207.916 50.8373C207.771 57.1842 208.257 57.1218 216.348 64.6219Z" fill="white"/>
<path fill-rule="evenodd" clip-rule="evenodd" d="M153.882 59.625C153.882 62.4117 154.411 61.1049 154.632 61.5901C155.996 64.6363 155.045 64.8429 155.362 68.605L159.018 68.7251L159.374 61.4748L164.625 61.4508L164.606 57.3716L159.388 57.3524L159.316 54.7483L168.19 54.7242L168.171 50.7267L155.15 50.77C155.155 63.2333 153.887 53.6528 153.882 59.625Z" fill="white"/>
</svg>
